EngravingCC.ufo
<glyph name="exclam" format="2">
  <advance width="880"/>
  <unicode hex="0021"/>
  <outline>
    <contour>
      <point x="200" y="220" type="curve" smooth="yes"/>
      <point x="200" y="352"/>
      <point x="308" y="460"/>
      <point x="440" y="460" type="curve" smooth="yes"/>
      <point x="572" y="460"/>
      <point x="680" y="352"/>
      <point x="680" y="220" type="curve" smooth="yes"/>
      <point x="680" y="88"/>
      <point x="572" y="-20"/>
      <point x="440" y="-20" type="curve" smooth="yes"/>
      <point x="308" y="-20"/>
      <point x="200" y="88"/>
    </contour>
    <contour>
      <point x="140" y="1400" type="line"/>
      <point x="740" y="1400" type="line"/>
      <point x="740" y="1370" type="line"/>
      <point x="540" y="1140"/>
      <point x="455" y="920"/>
      <point x="455" y="560" type="curve"/>
      <point x="425" y="560" type="line"/>
      <point x="425" y="920"/>
      <point x="340" y="1090"/>
      <point x="140" y="1370" type="curve"/>
    </contour>
  </outline>
</glyph>
<glyph name="numbersign" format="2">
  <advance width="1210"/>
  <unicode hex="0023"/>
  <outline>
    <contour>
      <point x="120" y="955" type="line"/>
      <point x="120" y="985" type="line"/>
      <point x="1150" y="985" type="line"/>
      <point x="1150" y="955" type="line"/>
    </contour>
    <contour>
      <point x="60" y="435" type="line"/>
      <point x="60" y="465" type="line"/>
      <point x="1090" y="465" type="line"/>
      <point x="1090" y="435" type="line"/>
    </contour>
    <contour>
      <point x="930" y="1400" type="line"/>
      <point x="960" y="1400" type="line"/>
      <point x="700" y="0" type="line"/>
      <point x="670" y="0" type="line"/>
    </contour>
    <contour>
      <point x="510" y="1400" type="line"/>
      <point x="540" y="1400" type="line"/>
      <point x="280" y="0" type="line"/>
      <point x="250" y="0" type="line"/>
    </contour>
  </outline>
</glyph>
<glyph name="dollar" format="2">
  <advance width="1666"/>
  <unicode hex="0024"/>
  <outline>
    <contour>
      <point x="872" y="1500" type="line"/>
      <point x="902" y="1500" type="line"/>
      <point x="902" y="-190" type="line"/>
      <point x="872" y="-190" type="line"/>
    </contour>
    <contour>
      <point x="702" y="1500" type="line"/>
      <point x="732" y="1500" type="line"/>
      <point x="732" y="-190" type="line"/>
      <point x="702" y="-190" type="line"/>
    </contour>
    <contour>
      <point x="873" y="-28" type="line"/>
      <point x="434" y="-28"/>
      <point x="80" y="74"/>
      <point x="80" y="298" type="curve" smooth="yes"/>
      <point x="80" y="412"/>
      <point x="183" y="468"/>
      <point x="313" y="468" type="curve" smooth="yes"/>
      <point x="433" y="468"/>
      <point x="528" y="390"/>
      <point x="528" y="290" type="curve" smooth="yes"/>
      <point x="528" y="119.997"/>
      <point x="370" y="156.147"/>
      <point x="370" y="113" type="curve" smooth="yes"/>
      <point x="370" y="54.5352"/>
      <point x="616.02" y="2"/>
      <point x="873" y="2" type="curve"/>
    </contour>
    <contour>
      <point x="817" y="1420" type="line"/>
      <point x="1176" y="1420"/>
      <point x="1470" y="1318"/>
      <point x="1470" y="1114" type="curve" smooth="yes"/>
      <point x="1470" y="1000"/>
      <point x="1377" y="934"/>
      <point x="1247" y="934" type="curve" smooth="yes"/>
      <point x="1127" y="934"/>
      <point x="1022" y="1012"/>
      <point x="1022" y="1112" type="curve" smooth="yes"/>
      <point x="1022" y="1282"/>
      <point x="1170" y="1255.85"/>
      <point x="1170" y="1299" type="curve" smooth="yes"/>
      <point x="1170" y="1347.46"/>
      <point x="1063.98" y="1390"/>
      <point x="817" y="1390" type="curve"/>
    </contour>
    <contour>
      <point x="817" y="1390" type="line"/>
      <point x="525" y="1390"/>
      <point x="358" y="1298"/>
      <point x="358" y="1190" type="curve" smooth="yes"/>
      <point x="358" y="1038"/>
      <point x="466.216" y="937.522"/>
      <point x="864" y="900" type="curve" smooth="yes"/>
      <point x="1367.26" y="852.528"/>
      <point x="1616" y="722"/>
      <point x="1616" y="440" type="curve" smooth="yes"/>
      <point x="1616" y="130"/>
      <point x="1235" y="-28"/>
      <point x="873" y="-28" type="curve"/>
      <point x="873" y="2" type="line"/>
      <point x="1095" y="2"/>
      <point x="1388" y="62"/>
      <point x="1388" y="250" type="curve" smooth="yes"/>
      <point x="1388" y="414"/>
      <point x="1207.52" y="460.075"/>
      <point x="768" y="505" type="curve" smooth="yes"/>
      <point x="285.458" y="554.322"/>
      <point x="98" y="691"/>
      <point x="98" y="970" type="curve" smooth="yes"/>
      <point x="98" y="1260"/>
      <point x="425" y="1420"/>
      <point x="817" y="1420" type="curve"/>
    </contour>
  </outline>
</glyph>
<glyph name="percent" format="2">
  <advance width="1922"/>
  <unicode hex="0025"/>
  <outline>
    <contour>
      <point x="1516" y="1400" type="line"/>
      <point x="446" y="0" type="line"/>
      <point x="406" y="0" type="line"/>
      <point x="1476" y="1400" type="line"/>
    </contour>
    <contour>
      <point x="1030" y="340" type="curve" smooth="yes"/>
      <point x="1030" y="528"/>
      <point x="1186" y="700"/>
      <point x="1466" y="700" type="curve" smooth="yes"/>
      <point x="1726" y="700"/>
      <point x="1902" y="528"/>
      <point x="1902" y="340" type="curve" smooth="yes"/>
      <point x="1902" y="152"/>
      <point x="1726" y="-20"/>
      <point x="1466" y="-20" type="curve" smooth="yes"/>
      <point x="1186" y="-20"/>
      <point x="1030" y="152"/>
    </contour>
    <contour>
      <point x="1362" y="340" type="curve" smooth="yes"/>
      <point x="1362" y="168"/>
      <point x="1376" y="0"/>
      <point x="1466" y="0" type="curve" smooth="yes"/>
      <point x="1556" y="0"/>
      <point x="1570" y="168"/>
      <point x="1570" y="340" type="curve" smooth="yes"/>
      <point x="1570" y="512"/>
      <point x="1556" y="680"/>
      <point x="1466" y="680" type="curve" smooth="yes"/>
      <point x="1376" y="680"/>
      <point x="1362" y="512"/>
    </contour>
    <contour>
      <point x="20" y="1060" type="curve" smooth="yes"/>
      <point x="20" y="1248"/>
      <point x="196" y="1420"/>
      <point x="456" y="1420" type="curve" smooth="yes"/>
      <point x="716" y="1420"/>
      <point x="892" y="1248"/>
      <point x="892" y="1060" type="curve" smooth="yes"/>
      <point x="892" y="872"/>
      <point x="716" y="700"/>
      <point x="456" y="700" type="curve" smooth="yes"/>
      <point x="196" y="700"/>
      <point x="20" y="872"/>
    </contour>
    <contour>
      <point x="352" y="1060" type="curve" smooth="yes"/>
      <point x="352" y="888"/>
      <point x="366" y="720"/>
      <point x="456" y="720" type="curve" smooth="yes"/>
      <point x="546" y="720"/>
      <point x="560" y="888"/>
      <point x="560" y="1060" type="curve" smooth="yes"/>
      <point x="560" y="1232"/>
      <point x="546" y="1400"/>
      <point x="456" y="1400" type="curve" smooth="yes"/>
      <point x="366" y="1400"/>
      <point x="352" y="1232"/>
    </contour>
  </outline>
</glyph>
<glyph name="ampersand" format="2">
  <advance width="2222"/>
  <unicode hex="0026"/>
  <outline>
    <contour>
      <point x="1341" y="409" type="line"/>
      <point x="1568.44" y="696.915" type="line" smooth="yes"/>
      <point x="1592.27" y="727.091"/>
      <point x="1570.02" y="756.427"/>
      <point x="1524.29" y="788" type="curve" smooth="yes"/>
      <point x="1482.46" y="816.887"/>
      <point x="1435.02" y="841"/>
      <point x="1351" y="850" type="curve"/>
      <point x="1351" y="870" type="line"/>
      <point x="1985" y="870" type="line"/>
      <point x="1985" y="850" type="line"/>
      <point x="1938.98" y="846"/>
      <point x="1896.84" y="831.898"/>
      <point x="1814.71" y="805" type="curve" smooth="yes"/>
      <point x="1754.58" y="785.306"/>
      <point x="1654" y="751.403"/>
      <point x="1596" y="680" type="curve" smooth="yes"/>
      <point x="1345" y="371" type="line"/>
    </contour>
    <contour>
      <point x="698" y="816" type="curve"/>
      <point x="738" y="788" type="line"/>
      <point x="628" y="774"/>
      <point x="490" y="678"/>
      <point x="490" y="504" type="curve" smooth="yes"/>
      <point x="490" y="278"/>
      <point x="610" y="67"/>
      <point x="842" y="67" type="curve" smooth="yes"/>
      <point x="1066" y="67"/>
      <point x="1196" y="272"/>
      <point x="1298" y="380" type="curve"/>
      <point x="1336" y="380" type="line"/>
      <point x="1188" y="198"/>
      <point x="1048" y="-20"/>
      <point x="652" y="-20" type="curve" smooth="yes"/>
      <point x="256" y="-20"/>
      <point x="100" y="144"/>
      <point x="100" y="370" type="curve" smooth="yes"/>
      <point x="100" y="628"/>
      <point x="432" y="772"/>
    </contour>
    <contour>
      <point x="1080" y="848" type="curve"/>
      <point x="1050" y="878" type="line"/>
      <point x="1198" y="929"/>
      <point x="1324" y="1036"/>
      <point x="1324" y="1174" type="curve" smooth="yes"/>
      <point x="1324" y="1292"/>
      <point x="1186" y="1390"/>
      <point x="992" y="1390" type="curve" smooth="yes"/>
      <point x="848" y="1390"/>
      <point x="796" y="1332"/>
      <point x="796" y="1260" type="curve" smooth="yes"/>
      <point x="796" y="1160"/>
      <point x="860.028" y="1103.41"/>
      <point x="952" y="1020" type="curve" smooth="yes"/>
      <point x="1500" y="523" type="line" smooth="yes"/>
      <point x="1603.94" y="428.734"/>
      <point x="1745" y="385"/>
      <point x="1840" y="385" type="curve" smooth="yes"/>
      <point x="1933" y="385"/>
      <point x="2028" y="422"/>
      <point x="2092" y="502" type="curve"/>
      <point x="2106" y="470"/>
      <point x="2122" y="405"/>
      <point x="2122" y="330" type="curve" smooth="yes"/>
      <point x="2122" y="97.9531"/>
      <point x="1892.49" y="-20"/>
      <point x="1721" y="-20" type="curve" smooth="yes"/>
      <point x="1542" y="-20"/>
      <point x="1398" y="54"/>
      <point x="1278" y="167" type="curve"/>
      <point x="612" y="880" type="line" smooth="yes"/>
      <point x="554.381" y="941.686"/>
      <point x="495" y="996"/>
      <point x="495" y="1126" type="curve" smooth="yes"/>
      <point x="495" y="1306"/>
      <point x="660" y="1420"/>
      <point x="992" y="1420" type="curve" smooth="yes"/>
      <point x="1216" y="1420"/>
      <point x="1354" y="1314"/>
      <point x="1354" y="1174" type="curve" smooth="yes"/>
      <point x="1354" y="1020"/>
      <point x="1252" y="934"/>
    </contour>
  </outline>
</glyph>
<glyph name="quotesingle" format="2">
  <advance width="840"/>
  <unicode hex="0027"/>
  <outline>
    <contour>
      <point x="638" y="1192" type="curve" smooth="yes"/>
      <point x="618" y="1042"/>
      <point x="435" y="966"/>
      <point x="435" y="746" type="curve"/>
      <point x="405" y="746" type="line"/>
      <point x="405" y="966"/>
      <point x="222" y="1042"/>
      <point x="202" y="1192" type="curve" smooth="yes"/>
      <point x="200" y="1206"/>
      <point x="200" y="1216"/>
      <point x="200" y="1228" type="curve" smooth="yes"/>
      <point x="200" y="1346"/>
      <point x="302" y="1430"/>
      <point x="420" y="1430" type="curve" smooth="yes"/>
      <point x="538" y="1430"/>
      <point x="640" y="1346"/>
      <point x="640" y="1228" type="curve" smooth="yes"/>
      <point x="640" y="1216"/>
      <point x="640" y="1206"/>
    </contour>
  </outline>
</glyph>
<glyph name="parenleft" format="2">
  <advance width="910"/>
  <unicode hex="0028"/>
  <outline>
    <contour>
      <point x="890" y="-238" type="curve"/>
      <point x="880" y="-253" type="line"/>
      <point x="394" y="-113"/>
      <point x="130" y="209"/>
      <point x="130" y="675" type="curve" smooth="yes"/>
      <point x="130" y="1141"/>
      <point x="394" y="1423"/>
      <point x="880" y="1563" type="curve"/>
      <point x="890" y="1548" type="line"/>
      <point x="662" y="1448"/>
      <point x="532" y="1059"/>
      <point x="532" y="675" type="curve" smooth="yes"/>
      <point x="532" y="291"/>
      <point x="662" y="-138"/>
    </contour>
  </outline>
</glyph>
<glyph name="asterisk" format="2">
  <advance width="1443"/>
  <unicode hex="002A"/>
  <outline>
    <contour>
      <point x="715" y="849" type="curve" smooth="yes"/>
      <point x="906" y="959"/>
      <point x="889" y="1138"/>
      <point x="1009" y="1230" type="curve" smooth="yes"/>
      <point x="1020" y="1239"/>
      <point x="1029" y="1244"/>
      <point x="1039" y="1250" type="curve" smooth="yes"/>
      <point x="1141" y="1309"/>
      <point x="1255" y="1280"/>
      <point x="1314" y="1178" type="curve" smooth="yes"/>
      <point x="1373" y="1076"/>
      <point x="1341" y="963"/>
      <point x="1239" y="904" type="curve" smooth="yes"/>
      <point x="1229" y="898"/>
      <point x="1220" y="893"/>
      <point x="1207" y="888" type="curve" smooth="yes"/>
      <point x="1067" y="830"/>
      <point x="920" y="933"/>
      <point x="729" y="823" type="curve" smooth="yes"/>
      <point x="538" y="713"/>
      <point x="555" y="534"/>
      <point x="435" y="442" type="curve" smooth="yes"/>
      <point x="424" y="433"/>
      <point x="415" y="428"/>
      <point x="405" y="422" type="curve" smooth="yes"/>
      <point x="303" y="363"/>
      <point x="189" y="392"/>
      <point x="130" y="494" type="curve" smooth="yes"/>
      <point x="71" y="596"/>
      <point x="103" y="709"/>
      <point x="205" y="768" type="curve" smooth="yes"/>
      <point x="215" y="774"/>
      <point x="224" y="779"/>
      <point x="237" y="784" type="curve" smooth="yes"/>
      <point x="377" y="842"/>
      <point x="524" y="739"/>
    </contour>
    <contour>
      <point x="729" y="849" type="curve" smooth="yes"/>
      <point x="920" y="739"/>
      <point x="1067" y="842"/>
      <point x="1207" y="784" type="curve" smooth="yes"/>
      <point x="1220" y="779"/>
      <point x="1229" y="774"/>
      <point x="1239" y="768" type="curve" smooth="yes"/>
      <point x="1341" y="709"/>
      <point x="1373" y="596"/>
      <point x="1314" y="494" type="curve" smooth="yes"/>
      <point x="1255" y="392"/>
      <point x="1141" y="363"/>
      <point x="1039" y="422" type="curve" smooth="yes"/>
      <point x="1029" y="428"/>
      <point x="1020" y="433"/>
      <point x="1009" y="442" type="curve" smooth="yes"/>
      <point x="889" y="534"/>
      <point x="906" y="713"/>
      <point x="715" y="823" type="curve" smooth="yes"/>
      <point x="524" y="933"/>
      <point x="377" y="830"/>
      <point x="237" y="888" type="curve" smooth="yes"/>
      <point x="224" y="893"/>
      <point x="215" y="898"/>
      <point x="205" y="904" type="curve" smooth="yes"/>
      <point x="103" y="963"/>
      <point x="71" y="1076"/>
      <point x="130" y="1178" type="curve" smooth="yes"/>
      <point x="189" y="1280"/>
      <point x="303" y="1309"/>
      <point x="405" y="1250" type="curve" smooth="yes"/>
      <point x="415" y="1244"/>
      <point x="424" y="1239"/>
      <point x="435" y="1230" type="curve" smooth="yes"/>
      <point x="555" y="1138"/>
      <point x="538" y="959"/>
    </contour>
    <contour>
      <point x="737" y="836" type="curve" smooth="yes"/>
      <point x="737" y="616"/>
      <point x="900" y="540"/>
      <point x="920" y="390" type="curve" smooth="yes"/>
      <point x="922" y="376"/>
      <point x="922" y="366"/>
      <point x="922" y="354" type="curve" smooth="yes"/>
      <point x="922" y="236"/>
      <point x="840" y="152"/>
      <point x="722" y="152" type="curve" smooth="yes"/>
      <point x="604" y="152"/>
      <point x="522" y="236"/>
      <point x="522" y="354" type="curve" smooth="yes"/>
      <point x="522" y="366"/>
      <point x="522" y="376"/>
      <point x="524" y="390" type="curve" smooth="yes"/>
      <point x="544" y="540"/>
      <point x="707" y="616"/>
      <point x="707" y="836" type="curve" smooth="yes"/>
      <point x="707" y="1056"/>
      <point x="544" y="1132"/>
      <point x="524" y="1282" type="curve" smooth="yes"/>
      <point x="522" y="1296"/>
      <point x="522" y="1306"/>
      <point x="522" y="1318" type="curve" smooth="yes"/>
      <point x="522" y="1436"/>
      <point x="604" y="1520"/>
      <point x="722" y="1520" type="curve" smooth="yes"/>
      <point x="840" y="1520"/>
      <point x="922" y="1436"/>
      <point x="922" y="1318" type="curve" smooth="yes"/>
      <point x="922" y="1306"/>
      <point x="922" y="1296"/>
      <point x="920" y="1282" type="curve" smooth="yes"/>
      <point x="900" y="1132"/>
      <point x="737" y="1056"/>
    </contour>
  </outline>
</glyph>
<glyph name="plus" format="2">
  <advance width="1350"/>
  <unicode hex="002B"/>
  <outline>
    <contour>
      <point x="180" y="420" type="line"/>
      <point x="180" y="600" type="line"/>
      <point x="1170" y="600" type="line"/>
      <point x="1170" y="420" type="line"/>
    </contour>
    <contour>
      <point x="570" y="1000" type="line"/>
      <point x="770" y="1000" type="line"/>
      <point x="770" y="20" type="line"/>
      <point x="570" y="20" type="line"/>
    </contour>
  </outline>
</glyph>
<glyph name="comma" format="2">
  <advance width="918"/>
  <unicode hex="002C"/>
  <outline>
    <contour>
      <point x="204" y="218" type="curve" smooth="yes"/>
      <point x="204" y="344"/>
      <point x="312" y="456"/>
      <point x="458" y="456" type="curve" smooth="yes"/>
      <point x="606" y="456"/>
      <point x="718" y="334"/>
      <point x="718" y="148" type="curve" smooth="yes"/>
      <point x="718" y="-123"/>
      <point x="510" y="-312"/>
      <point x="200" y="-312" type="curve"/>
      <point x="200" y="-292" type="line"/>
      <point x="438" y="-282"/>
      <point x="575" y="-128"/>
      <point x="575" y="1" type="curve" smooth="yes"/>
      <point x="575" y="6"/>
      <point x="573" y="18"/>
      <point x="561" y="18" type="curve" smooth="yes"/>
      <point x="543.879" y="18"/>
      <point x="519" y="-20"/>
      <point x="440" y="-20" type="curve" smooth="yes"/>
      <point x="294" y="-20"/>
      <point x="204" y="92"/>
    </contour>
  </outline>
</glyph>
<glyph name="period" format="2">
  <advance width="880"/>
  <unicode hex="002E"/>
  <outline>
    <contour>
      <point x="200" y="220" type="curve" smooth="yes"/>
      <point x="200" y="352"/>
      <point x="308" y="460"/>
      <point x="440" y="460" type="curve" smooth="yes"/>
      <point x="572" y="460"/>
      <point x="680" y="352"/>
      <point x="680" y="220" type="curve" smooth="yes"/>
      <point x="680" y="88"/>
      <point x="572" y="-20"/>
      <point x="440" y="-20" type="curve" smooth="yes"/>
      <point x="308" y="-20"/>
      <point x="200" y="88"/>
    </contour>
  </outline>
</glyph>
<glyph name="zero" format="2">
  <advance width="1960"/>
  <unicode hex="0030"/>
  <outline>
    <contour>
      <point x="980" y="-20" type="curve" smooth="yes"/>
      <point x="614" y="-20"/>
      <point x="160" y="256"/>
      <point x="160" y="700" type="curve" smooth="yes"/>
      <point x="160" y="1144"/>
      <point x="634" y="1420"/>
      <point x="980" y="1420" type="curve" smooth="yes"/>
      <point x="1326" y="1420"/>
      <point x="1800" y="1144"/>
      <point x="1800" y="700" type="curve" smooth="yes"/>
      <point x="1800" y="256"/>
      <point x="1346" y="-20"/>
    </contour>
    <contour>
      <point x="980" y="1390" type="curve" smooth="yes"/>
      <point x="702" y="1390"/>
      <point x="630" y="1264"/>
      <point x="630" y="700" type="curve" smooth="yes"/>
      <point x="630" y="136"/>
      <point x="682" y="0"/>
      <point x="980" y="0" type="curve" smooth="yes"/>
      <point x="1278" y="0"/>
      <point x="1330" y="136"/>
      <point x="1330" y="700" type="curve" smooth="yes"/>
      <point x="1330" y="1264"/>
      <point x="1278" y="1390"/>
    </contour>
  </outline>
</glyph>
<glyph name="one" format="2">
  <advance width="1496"/>
  <unicode hex="0031"/>
  <outline>
    <contour>
      <point x="1296" y="20" type="curve"/>
      <point x="1296" y="0" type="line"/>
      <point x="972" y="0" type="line"/>
      <point x="972" y="175" type="line"/>
      <point x="972" y="120"/>
      <point x="999.288" y="104.355"/>
      <point x="1099.71" y="65" type="curve" smooth="yes"/>
      <point x="1164.97" y="39.4219"/>
      <point x="1214.98" y="29"/>
    </contour>
    <contour>
      <point x="246" y="20" type="line"/>
      <point x="327.024" y="29"/>
      <point x="377.026" y="39.4219"/>
      <point x="442.292" y="65" type="curve" smooth="yes"/>
      <point x="542.712" y="104.355"/>
      <point x="570" y="120"/>
      <point x="570" y="175" type="curve"/>
      <point x="570" y="0" type="line"/>
      <point x="246" y="0" type="line"/>
    </contour>
    <contour>
      <point x="200" y="1080" type="line"/>
      <point x="972" y="1490" type="line"/>
      <point x="972" y="0" type="line"/>
      <point x="570" y="0" type="line"/>
      <point x="570" y="1237" type="line"/>
      <point x="200" y="1044" type="line"/>
    </contour>
  </outline>
</glyph>
<glyph name="two" format="2">
  <advance width="1848"/>
  <unicode hex="0032"/>
  <outline>
    <contour>
      <point x="180" y="-20" type="line"/>
      <point x="180" y="214.628"/>
      <point x="428.868" y="424"/>
      <point x="798" y="424" type="curve" smooth="yes"/>
      <point x="1114.89" y="424"/>
      <point x="1230.24" y="240"/>
      <point x="1491" y="240" type="curve" smooth="yes"/>
      <point x="1629" y="240"/>
      <point x="1678" y="312"/>
      <point x="1688" y="456" type="curve"/>
      <point x="1708" y="456" type="line"/>
      <point x="1708" y="158.214"/>
      <point x="1590.84" y="-50"/>
      <point x="1221" y="-50" type="curve" smooth="yes"/>
      <point x="758.452" y="-50"/>
      <point x="736.582" y="224"/>
      <point x="448" y="224" type="curve" smooth="yes"/>
      <point x="326" y="224"/>
      <point x="210" y="160"/>
      <point x="200" y="-20" type="curve"/>
    </contour>
    <contour>
      <point x="160" y="-20" type="line"/>
      <point x="160" y="293.333"/>
      <point x="409.73" y="507.926"/>
      <point x="680" y="581.722" type="curve" smooth="yes"/>
      <point x="1033.33" y="678.196"/>
      <point x="1168" y="765.756"/>
      <point x="1168" y="1030" type="curve" smooth="yes"/>
      <point x="1168" y="1283"/>
      <point x="1032" y="1387"/>
      <point x="800" y="1387" type="curve" smooth="yes"/>
      <point x="553.02" y="1387"/>
      <point x="327" y="1292.46"/>
      <point x="327" y="1224" type="curve" smooth="yes"/>
      <point x="327" y="1215"/>
      <point x="330" y="1209.49"/>
      <point x="337" y="1209.49" type="curve" smooth="yes"/>
      <point x="362.629" y="1209.49"/>
      <point x="390.025" y="1224"/>
      <point x="448" y="1224" type="curve" smooth="yes"/>
      <point x="567" y="1224"/>
      <point x="675" y="1152"/>
      <point x="675" y="1022" type="curve" smooth="yes"/>
      <point x="675" y="882"/>
      <point x="560" y="804"/>
      <point x="430" y="804" type="curve" smooth="yes"/>
      <point x="300" y="804"/>
      <point x="177" y="890"/>
      <point x="177" y="1054" type="curve" smooth="yes"/>
      <point x="177" y="1258"/>
      <point x="451" y="1420"/>
      <point x="810" y="1420" type="curve" smooth="yes"/>
      <point x="1272" y="1420"/>
      <point x="1638" y="1261"/>
      <point x="1638" y="1001" type="curve" smooth="yes"/>
      <point x="1638" y="709.843"/>
      <point x="1090.22" y="660.288"/>
      <point x="692" y="552.722" type="curve" smooth="yes"/>
      <point x="422.957" y="480.049"/>
      <point x="190" y="280.044"/>
      <point x="190" y="-20" type="curve"/>
    </contour>
  </outline>
</glyph>
<glyph name="three" format="2">
  <advance width="1852"/>
  <unicode hex="0033"/>
  <outline>
    <contour>
      <point x="762" y="1383" type="line"/>
      <point x="515.02" y="1383"/>
      <point x="319" y="1300.46"/>
      <point x="319" y="1266" type="curve" smooth="yes"/>
      <point x="319" y="1259"/>
      <point x="322" y="1255.49"/>
      <point x="329" y="1255.49" type="curve" smooth="yes"/>
      <point x="344.629" y="1255.49"/>
      <point x="362.025" y="1270"/>
      <point x="410" y="1270" type="curve" smooth="yes"/>
      <point x="529" y="1270"/>
      <point x="627" y="1198"/>
      <point x="627" y="1068" type="curve" smooth="yes"/>
      <point x="627" y="928"/>
      <point x="522" y="860"/>
      <point x="392" y="860" type="curve" smooth="yes"/>
      <point x="262" y="860"/>
      <point x="139" y="946"/>
      <point x="139" y="1090" type="curve" smooth="yes"/>
      <point x="139" y="1324"/>
      <point x="473" y="1418"/>
      <point x="842" y="1418" type="curve"/>
    </contour>
    <contour>
      <point x="1692" y="360" type="curve" smooth="yes"/>
      <point x="1692" y="70"/>
      <point x="1164" y="-20"/>
      <point x="832" y="-20" type="curve" smooth="yes"/>
      <point x="448" y="-20"/>
      <point x="100" y="103"/>
      <point x="100" y="338" type="curve" smooth="yes"/>
      <point x="100" y="470"/>
      <point x="200" y="556"/>
      <point x="350" y="556" type="curve" smooth="yes"/>
      <point x="461" y="556"/>
      <point x="597" y="477"/>
      <point x="597" y="345" type="curve" smooth="yes"/>
      <point x="597" y="211"/>
      <point x="483" y="150"/>
      <point x="384" y="150" type="curve" smooth="yes"/>
      <point x="316.318" y="150"/>
      <point x="306.018" y="172.742"/>
      <point x="288" y="172.742" type="curve" smooth="yes"/>
      <point x="284" y="172.742"/>
      <point x="281" y="171.481"/>
      <point x="281" y="167" type="curve" smooth="yes"/>
      <point x="281" y="117"/>
      <point x="479.633" y="20"/>
      <point x="752" y="20" type="curve" smooth="yes"/>
      <point x="1020" y="20"/>
      <point x="1260" y="142"/>
      <point x="1260" y="360" type="curve" smooth="yes"/>
      <point x="1260" y="588"/>
      <point x="1194" y="734"/>
      <point x="726" y="734" type="curve"/>
      <point x="726" y="754" type="line"/>
      <point x="1308" y="754"/>
      <point x="1692" y="611"/>
    </contour>
    <contour>
      <point x="726" y="744" type="curve"/>
      <point x="726" y="764" type="line"/>
      <point x="944" y="764"/>
      <point x="1210" y="824"/>
      <point x="1210" y="1072" type="curve" smooth="yes"/>
      <point x="1210" y="1310"/>
      <point x="980" y="1383"/>
      <point x="762" y="1383" type="curve"/>
      <point x="842" y="1418" type="line"/>
      <point x="1315" y="1418"/>
      <point x="1642" y="1293"/>
      <point x="1642" y="1072" type="curve" smooth="yes"/>
      <point x="1642" y="842"/>
      <point x="1288" y="744"/>
    </contour>
  </outline>
</glyph>
<glyph name="four" format="2">
  <advance width="1665"/>
  <unicode hex="0034"/>
  <outline>
    <contour>
      <point x="1545" y="244" type="line"/>
      <point x="1538" y="275.024"/>
      <point x="1526.12" y="294.85"/>
      <point x="1500" y="350.292" type="curve" smooth="yes"/>
      <point x="1476.98" y="399.148"/>
      <point x="1456" y="418"/>
      <point x="1420" y="418" type="curve"/>
      <point x="1565" y="418" type="line"/>
      <point x="1565" y="244" type="line"/>
    </contour>
    <contour>
      <point x="1545" y="622" type="curve"/>
      <point x="1565" y="622" type="line"/>
      <point x="1565" y="448" type="line"/>
      <point x="1420" y="448" type="line"/>
      <point x="1456" y="448"/>
      <point x="1476.98" y="466.852"/>
      <point x="1500" y="515.708" type="curve" smooth="yes"/>
      <point x="1526.12" y="571.15"/>
      <point x="1538" y="590.976"/>
    </contour>
    <contour>
      <point x="490" y="20" type="line"/>
      <point x="571.024" y="29"/>
      <point x="621.026" y="39.4219"/>
      <point x="686.292" y="65" type="curve" smooth="yes"/>
      <point x="786.712" y="104.355"/>
      <point x="814" y="120"/>
      <point x="814" y="175" type="curve"/>
      <point x="814" y="0" type="line"/>
      <point x="490" y="0" type="line"/>
    </contour>
    <contour>
      <point x="1540" y="20" type="curve"/>
      <point x="1540" y="0" type="line"/>
      <point x="1216" y="0" type="line"/>
      <point x="1216" y="175" type="line"/>
      <point x="1216" y="120"/>
      <point x="1243.29" y="104.355"/>
      <point x="1343.71" y="65" type="curve" smooth="yes"/>
      <point x="1408.97" y="39.4219"/>
      <point x="1458.98" y="29"/>
    </contour>
    <contour>
      <point x="1216" y="418" type="line"/>
      <point x="1216" y="0" type="line"/>
      <point x="814" y="0" type="line"/>
      <point x="814" y="418" type="line"/>
      <point x="80" y="418" type="line"/>
      <point x="80" y="576" type="line"/>
      <point x="1216" y="1500" type="line"/>
      <point x="1216" y="448" type="line"/>
      <point x="1565" y="448" type="line"/>
      <point x="1565" y="418" type="line"/>
    </contour>
    <contour>
      <point x="814" y="448" type="line"/>
      <point x="814" y="1138" type="line"/>
      <point x="286" y="708" type="line"/>
      <point x="286" y="448" type="line"/>
    </contour>
  </outline>
</glyph>
<glyph name="five" format="2">
  <advance width="1772"/>
  <unicode hex="0035"/>
  <outline>
    <contour>
      <point x="1652" y="390" type="line"/>
      <point x="1652" y="100"/>
      <point x="1164" y="-20"/>
      <point x="832" y="-20" type="curve" smooth="yes"/>
      <point x="448" y="-20"/>
      <point x="100" y="103"/>
      <point x="100" y="338" type="curve" smooth="yes"/>
      <point x="100" y="470"/>
      <point x="200" y="556"/>
      <point x="350" y="556" type="curve" smooth="yes"/>
      <point x="461" y="556"/>
      <point x="597" y="477"/>
      <point x="597" y="345" type="curve" smooth="yes"/>
      <point x="597" y="211"/>
      <point x="483" y="150"/>
      <point x="384" y="150" type="curve" smooth="yes"/>
      <point x="316.318" y="150"/>
      <point x="306.018" y="172.742"/>
      <point x="288" y="172.742" type="curve" smooth="yes"/>
      <point x="284" y="172.742"/>
      <point x="281" y="171.481"/>
      <point x="281" y="167" type="curve" smooth="yes"/>
      <point x="281" y="107"/>
      <point x="479.633" y="15"/>
      <point x="752" y="15" type="curve" smooth="yes"/>
      <point x="1020" y="15"/>
      <point x="1220" y="172"/>
      <point x="1220" y="390" type="curve"/>
    </contour>
    <contour>
      <point x="1400" y="1030" type="line"/>
      <point x="297" y="1030" type="line"/>
      <point x="297" y="674" type="line"/>
      <point x="267" y="674" type="line"/>
      <point x="267" y="1390" type="line"/>
      <point x="1577" y="1390" type="line"/>
    </contour>
    <contour>
      <point x="1220" y="390" type="line"/>
      <point x="1220" y="659"/>
      <point x="1092" y="808"/>
      <point x="794" y="808" type="curve" smooth="yes"/>
      <point x="589" y="808"/>
      <point x="404" y="750"/>
      <point x="315" y="674" type="curve"/>
      <point x="279" y="674" type="line"/>
      <point x="341" y="758"/>
      <point x="582" y="849"/>
      <point x="864" y="849" type="curve" smooth="yes"/>
      <point x="1226" y="849"/>
      <point x="1652" y="690"/>
      <point x="1652" y="390" type="curve"/>
    </contour>
  </outline>
</glyph>
<glyph name="six" format="2">
  <advance width="1860"/>
  <unicode hex="0036"/>
  <outline>
    <contour>
      <point x="1098" y="1390" type="curve"/>
      <point x="1078" y="1420" type="line"/>
      <point x="1447" y="1420"/>
      <point x="1621" y="1298"/>
      <point x="1621" y="1144" type="curve" smooth="yes"/>
      <point x="1621" y="1000"/>
      <point x="1508" y="934"/>
      <point x="1378" y="934" type="curve" smooth="yes"/>
      <point x="1248" y="934"/>
      <point x="1133" y="1012"/>
      <point x="1133" y="1152" type="curve" smooth="yes"/>
      <point x="1133" y="1317"/>
      <point x="1301" y="1301"/>
      <point x="1301" y="1344" type="curve" smooth="yes"/>
      <point x="1301" y="1372"/>
      <point x="1225" y="1390"/>
    </contour>
    <contour>
      <point x="1340" y="400" type="curve" smooth="yes"/>
      <point x="1340" y="734"/>
      <point x="1210" y="800"/>
      <point x="1032" y="800" type="curve" smooth="yes"/>
      <point x="866" y="800"/>
      <point x="630" y="736"/>
      <point x="630" y="560" type="curve"/>
      <point x="600" y="560" type="line"/>
      <point x="600" y="744"/>
      <point x="838" y="830"/>
      <point x="1032" y="830" type="curve" smooth="yes"/>
      <point x="1324" y="830"/>
      <point x="1740" y="770"/>
      <point x="1740" y="430" type="curve" smooth="yes"/>
      <point x="1740" y="110"/>
      <point x="1380" y="-20"/>
      <point x="1008" y="-20" type="curve" smooth="yes"/>
      <point x="606" y="-20"/>
      <point x="170" y="190"/>
      <point x="170" y="670" type="curve" smooth="yes"/>
      <point x="170" y="1116"/>
      <point x="474" y="1420"/>
      <point x="1078" y="1420" type="curve"/>
      <point x="1098" y="1390" type="line"/>
      <point x="768" y="1390"/>
      <point x="620" y="1224"/>
      <point x="620" y="610" type="curve"/>
      <point x="630" y="560" type="line"/>
      <point x="630" y="116"/>
      <point x="770" y="5"/>
      <point x="1008" y="5" type="curve" smooth="yes"/>
      <point x="1206" y="5"/>
      <point x="1340" y="106"/>
    </contour>
  </outline>
</glyph>
<glyph name="seven" format="2">
  <advance width="1635"/>
  <unicode hex="0037"/>
  <outline>
    <contour>
      <point x="165" y="944" type="line"/>
      <point x="165" y="1178.63"/>
      <point x="423.868" y="1418"/>
      <point x="773" y="1418" type="curve" smooth="yes"/>
      <point x="1069.89" y="1418"/>
      <point x="1113.24" y="1254"/>
      <point x="1334" y="1254" type="curve" smooth="yes"/>
      <point x="1462" y="1254"/>
      <point x="1533" y="1336"/>
      <point x="1553" y="1400" type="curve"/>
      <point x="1573" y="1400" type="line"/>
      <point x="1573" y="1242.21"/>
      <point x="1185.84" y="994"/>
      <point x="836" y="994" type="curve" smooth="yes"/>
      <point x="613.452" y="994"/>
      <point x="531.582" y="1108"/>
      <point x="363" y="1108" type="curve" smooth="yes"/>
      <point x="271" y="1108"/>
      <point x="195" y="1044"/>
      <point x="185" y="944" type="curve"/>
    </contour>
    <contour>
      <point x="160" y="804" type="line"/>
      <point x="160" y="1400" type="line"/>
      <point x="190" y="1400" type="line"/>
      <point x="190" y="804" type="line"/>
    </contour>
    <contour>
      <point x="561" y="292" type="curve" smooth="yes"/>
      <point x="561" y="520"/>
      <point x="715.308" y="672.962"/>
      <point x="909" y="796" type="curve" smooth="yes"/>
      <point x="1023.42" y="868.68"/>
      <point x="1565" y="1139"/>
      <point x="1565" y="1400" type="curve"/>
      <point x="1595" y="1400" type="line"/>
      <point x="1595" y="1141"/>
      <point x="1217.89" y="960.767"/>
      <point x="1047" y="787" type="curve" smooth="yes"/>
      <point x="942.905" y="681.155"/>
      <point x="895" y="562"/>
      <point x="895" y="444" type="curve" smooth="yes"/>
      <point x="895" y="310"/>
      <point x="971" y="216"/>
      <point x="1171" y="246" type="curve"/>
      <point x="1171" y="112"/>
      <point x="1041" y="-20"/>
      <point x="863" y="-20" type="curve" smooth="yes"/>
      <point x="683" y="-20"/>
      <point x="561" y="84"/>
    </contour>
  </outline>
</glyph>
<glyph name="eight" format="2">
  <advance width="1863"/>
  <unicode hex="0038"/>
  <outline>
    <contour>
      <point x="850" y="642" type="line"/>
      <point x="590" y="642"/>
      <point x="320" y="560"/>
      <point x="320" y="352" type="curve" smooth="yes"/>
      <point x="320" y="104"/>
      <point x="640" y="2"/>
      <point x="950" y="2" type="curve"/>
      <point x="950" y="-28" type="line"/>
      <point x="568" y="-28"/>
      <point x="170" y="82"/>
      <point x="170" y="352" type="curve" smooth="yes"/>
      <point x="170" y="552"/>
      <point x="508" y="672"/>
      <point x="850" y="672" type="curve"/>
    </contour>
    <contour>
      <point x="914" y="1390" type="line"/>
      <point x="582" y="1390"/>
      <point x="445" y="1308"/>
      <point x="445" y="1210" type="curve" smooth="yes"/>
      <point x="445" y="1108"/>
      <point x="549.308" y="983.031"/>
      <point x="1001" y="900" type="curve" smooth="yes"/>
      <point x="1545" y="800"/>
      <point x="1693" y="652"/>
      <point x="1693" y="430" type="curve" smooth="yes"/>
      <point x="1693" y="110"/>
      <point x="1362" y="-28"/>
      <point x="950" y="-28" type="curve"/>
      <point x="950" y="2" type="line"/>
      <point x="1222" y="2"/>
      <point x="1465" y="72"/>
      <point x="1465" y="220" type="curve" smooth="yes"/>
      <point x="1465" y="334"/>
      <point x="1315" y="380"/>
      <point x="885" y="485" type="curve" smooth="yes"/>
      <point x="355.77" y="614.23"/>
      <point x="175" y="691"/>
      <point x="175" y="990" type="curve" smooth="yes"/>
      <point x="175" y="1270"/>
      <point x="482" y="1420"/>
      <point x="914" y="1420" type="curve"/>
    </contour>
    <contour>
      <point x="904" y="790" type="line"/>
      <point x="1164" y="790"/>
      <point x="1444" y="822"/>
      <point x="1444" y="1070" type="curve" smooth="yes"/>
      <point x="1444" y="1298"/>
      <point x="1234" y="1390"/>
      <point x="914" y="1390" type="curve"/>
      <point x="914" y="1420" type="line"/>
      <point x="1256" y="1420"/>
      <point x="1584" y="1290"/>
      <point x="1584" y="1070" type="curve" smooth="yes"/>
      <point x="1584" y="850"/>
      <point x="1246" y="760"/>
      <point x="904" y="760" type="curve"/>
    </contour>
  </outline>
</glyph>
<glyph name="less" format="2">
  <advance width="1280"/>
  <unicode hex="003C"/>
  <outline>
    <contour>
      <point x="434" y="524" type="line"/>
      <point x="1150" y="210" type="line"/>
      <point x="1150" y="10" type="line"/>
      <point x="130" y="450" type="line"/>
      <point x="130" y="580" type="line"/>
      <point x="1150" y="1020" type="line"/>
      <point x="1150" y="820" type="line"/>
    </contour>
  </outline>
</glyph>
<glyph name="equal" format="2">
  <advance width="1230"/>
  <unicode hex="003D"/>
  <outline>
    <contour>
      <point x="130" y="230" type="line"/>
      <point x="130" y="430" type="line"/>
      <point x="1100" y="430" type="line"/>
      <point x="1100" y="230" type="line"/>
    </contour>
    <contour>
      <point x="130" y="580" type="line"/>
      <point x="130" y="780" type="line"/>
      <point x="1100" y="780" type="line"/>
      <point x="1100" y="580" type="line"/>
    </contour>
  </outline>
</glyph>
<glyph name="greater" format="2">
  <advance width="1280"/>
  <unicode hex="003E"/>
  <outline>
    <contour>
      <point x="846" y="506" type="line"/>
      <point x="130" y="820" type="line"/>
      <point x="130" y="1020" type="line"/>
      <point x="1150" y="580" type="line"/>
      <point x="1150" y="450" type="line"/>
      <point x="130" y="10" type="line"/>
      <point x="130" y="210" type="line"/>
    </contour>
  </outline>
</glyph>
<glyph name="question" format="2">
  <advance width="1271"/>
  <unicode hex="003F"/>
  <outline>
    <contour>
      <point x="593" y="1419" type="curve"/>
      <point x="573" y="1387" type="line"/>
      <point x="326" y="1387"/>
      <point x="175" y="1286"/>
      <point x="175" y="1218" type="curve" smooth="yes"/>
      <point x="175" y="1208"/>
      <point x="178" y="1205"/>
      <point x="184" y="1205" type="curve" smooth="yes"/>
      <point x="223" y="1205"/>
      <point x="250" y="1238"/>
      <point x="337" y="1238" type="curve" smooth="yes"/>
      <point x="432" y="1238"/>
      <point x="528" y="1183"/>
      <point x="528" y="1081" type="curve" smooth="yes"/>
      <point x="528" y="981"/>
      <point x="443" y="903"/>
      <point x="303" y="903" type="curve" smooth="yes"/>
      <point x="173" y="903"/>
      <point x="90" y="969"/>
      <point x="90" y="1103" type="curve" smooth="yes"/>
      <point x="90" y="1257"/>
      <point x="234" y="1419"/>
    </contour>
    <contour>
      <point x="344" y="220" type="curve" smooth="yes"/>
      <point x="344" y="352"/>
      <point x="452" y="460"/>
      <point x="584" y="460" type="curve" smooth="yes"/>
      <point x="716" y="460"/>
      <point x="824" y="352"/>
      <point x="824" y="220" type="curve" smooth="yes"/>
      <point x="824" y="88"/>
      <point x="716" y="-20"/>
      <point x="584" y="-20" type="curve" smooth="yes"/>
      <point x="452" y="-20"/>
      <point x="344" y="88"/>
    </contour>
    <contour>
      <point x="695" y="820" type="curve" smooth="yes"/>
      <point x="771" y="864"/>
      <point x="809" y="964"/>
      <point x="809" y="1110" type="curve" smooth="yes"/>
      <point x="809" y="1298"/>
      <point x="721" y="1387"/>
      <point x="573" y="1387" type="curve"/>
      <point x="593" y="1419" type="line"/>
      <point x="925" y="1419"/>
      <point x="1191" y="1340"/>
      <point x="1191" y="1100" type="curve" smooth="yes"/>
      <point x="1191" y="911"/>
      <point x="1019.88" y="884.15"/>
      <point x="836" y="832" type="curve" smooth="yes"/>
      <point x="613.28" y="768.835"/>
      <point x="597" y="720.062"/>
      <point x="597" y="558" type="curve"/>
      <point x="565" y="558" type="line"/>
      <point x="565" y="723.266"/>
      <point x="578.902" y="752.958"/>
    </contour>
  </outline>
</glyph>
<glyph name="at" format="2">
  <advance width="2552"/>
  <unicode hex="0040"/>
  <outline>
    <contour>
      <point x="524" y="714" type="curve"/>
      <point x="956" y="714" type="line"/>
      <point x="956" y="496"/>
      <point x="1014" y="353"/>
      <point x="1212" y="353" type="curve" smooth="yes"/>
      <point x="1353.37" y="353"/>
      <point x="1512" y="464"/>
      <point x="1512" y="714" type="curve"/>
      <point x="1542" y="714" type="line"/>
      <point x="1542" y="489"/>
      <point x="1417" y="294"/>
      <point x="1124" y="294" type="curve" smooth="yes"/>
      <point x="772" y="294"/>
      <point x="524" y="474"/>
    </contour>
    <contour>
      <point x="524" y="714" type="line"/>
      <point x="524" y="954"/>
      <point x="772" y="1134"/>
      <point x="1124" y="1134" type="curve" smooth="yes"/>
      <point x="1417" y="1134"/>
      <point x="1542" y="939"/>
      <point x="1542" y="714" type="curve"/>
      <point x="1512" y="714" type="line"/>
      <point x="1512" y="964"/>
      <point x="1353.37" y="1075"/>
      <point x="1212" y="1075" type="curve" smooth="yes"/>
      <point x="1014" y="1075"/>
      <point x="956" y="932"/>
      <point x="956" y="714" type="curve"/>
    </contour>
    <contour>
      <point x="1512" y="575" type="curve" smooth="yes"/>
      <point x="1512" y="1110" type="line"/>
      <point x="1894" y="1110" type="line"/>
      <point x="1894" y="495" type="line" smooth="yes"/>
      <point x="1894" y="397"/>
      <point x="1950" y="349"/>
      <point x="2064" y="349" type="curve" smooth="yes"/>
      <point x="2170" y="349"/>
      <point x="2417" y="446"/>
      <point x="2417" y="742" type="curve" smooth="yes"/>
      <point x="2417" y="1112"/>
      <point x="1944" y="1420"/>
      <point x="1302" y="1420" type="curve" smooth="yes"/>
      <point x="688" y="1420"/>
      <point x="135" y="1142"/>
      <point x="135" y="662" type="curve" smooth="yes"/>
      <point x="135" y="183"/>
      <point x="776" y="-8"/>
      <point x="1280" y="-8" type="curve" smooth="yes"/>
      <point x="1642" y="-8"/>
      <point x="1946" y="72"/>
      <point x="2126" y="168" type="curve"/>
      <point x="2137" y="139" type="line"/>
      <point x="1969" y="43"/>
      <point x="1646" y="-38"/>
      <point x="1280" y="-38" type="curve" smooth="yes"/>
      <point x="744" y="-38"/>
      <point x="100" y="161"/>
      <point x="100" y="662" type="curve" smooth="yes"/>
      <point x="100" y="1163"/>
      <point x="666" y="1450"/>
      <point x="1302" y="1450" type="curve" smooth="yes"/>
      <point x="1968" y="1450"/>
      <point x="2452" y="1128"/>
      <point x="2452" y="742" type="curve" smooth="yes"/>
      <point x="2452" y="422"/>
      <point x="2175" y="291"/>
      <point x="1934" y="291" type="curve" smooth="yes"/>
      <point x="1656" y="291"/>
      <point x="1512" y="401"/>
    </contour>
  </outline>
</glyph>
<glyph name="A" format="2">
  <advance width="2320"/>
  <unicode hex="0041"/>
  <anchor x="1706" y="0" name="cedilla"/>
  <anchor x="986" y="0" name="bottom"/>
  <anchor x="1090" y="1400" name="top"/>
  <outline>
    <contour>
      <point x="870" y="1021" type="line"/>
      <point x="1090" y="1430" type="line"/>
      <point x="1952" y="160" type="line" smooth="yes"/>
      <point x="1981" y="116"/>
      <point x="2002" y="100"/>
      <point x="2040" y="79" type="curve" smooth="yes"/>
      <point x="2083" y="55"/>
      <point x="2148" y="20"/>
      <point x="2212" y="20" type="curve" smooth="yes"/>
      <point x="2270" y="20" type="line"/>
      <point x="2270" y="0" type="line"/>
      <point x="2060" y="0" type="line"/>
      <point x="1610" y="0" type="line"/>
      <point x="1246" y="0" type="line"/>
      <point x="1246" y="20" type="line"/>
      <point x="1270" y="20" type="line" smooth="yes"/>
      <point x="1334" y="20"/>
      <point x="1399" y="55"/>
      <point x="1442" y="79" type="curve" smooth="yes"/>
      <point x="1497" y="111"/>
      <point x="1509" y="142"/>
      <point x="1487" y="173" type="curve" smooth="yes"/>
    </contour>
    <contour>
      <point x="530" y="465" type="line"/>
      <point x="1298" y="465" type="line"/>
      <point x="1298" y="435" type="line"/>
      <point x="520" y="435" type="line"/>
    </contour>
    <contour>
      <point x="80" y="20" type="line"/>
      <point x="120" y="20" type="line" smooth="yes"/>
      <point x="176" y="20"/>
      <point x="238" y="110"/>
      <point x="313" y="196" type="curve" smooth="yes"/>
      <point x="387" y="281"/>
      <point x="452" y="371"/>
      <point x="473" y="404" type="curve" smooth="yes"/>
      <point x="1090" y="1430" type="line"/>
      <point x="1090" y="1380" type="line"/>
      <point x="500" y="397" type="line" smooth="yes"/>
      <point x="463" y="336"/>
      <point x="503" y="261"/>
      <point x="553" y="188" type="curve" smooth="yes"/>
      <point x="608" y="107"/>
      <point x="646" y="57"/>
      <point x="681" y="34" type="curve" smooth="yes"/>
      <point x="691" y="27"/>
      <point x="707" y="20"/>
      <point x="736" y="20" type="curve" smooth="yes"/>
      <point x="780" y="20" type="line"/>
      <point x="780" y="0" type="line"/>
      <point x="80" y="0" type="line"/>
    </contour>
  </outline>
</glyph>
<glyph name="B" format="2">
  <advance width="2169"/>
  <unicode hex="0042"/>
  <anchor x="1026" y="0" name="bottom"/>
  <anchor x="1064" y="1400" name="top"/>
  <outline>
    <contour>
      <point x="80" y="20" type="line"/>
      <point x="161.024" y="29"/>
      <point x="211.026" y="39.4219"/>
      <point x="276.292" y="65" type="curve" smooth="yes"/>
      <point x="376.712" y="104.355"/>
      <point x="404" y="120"/>
      <point x="404" y="175" type="curve"/>
      <point x="404" y="0" type="line"/>
      <point x="80" y="0" type="line"/>
    </contour>
    <contour>
      <point x="80" y="1380" type="curve"/>
      <point x="80" y="1400" type="line"/>
      <point x="404" y="1400" type="line"/>
      <point x="404" y="1225" type="line"/>
      <point x="404" y="1280"/>
      <point x="376.712" y="1295.64"/>
      <point x="276.292" y="1335" type="curve" smooth="yes"/>
      <point x="211.026" y="1360.58"/>
      <point x="161.024" y="1371"/>
    </contour>
    <contour>
      <point x="1439" y="0" type="curve" smooth="yes"/>
      <point x="806" y="0" type="line"/>
      <point x="806" y="30" type="line"/>
      <point x="1299" y="30" type="line" smooth="yes"/>
      <point x="1450.79" y="30"/>
      <point x="1579" y="102"/>
      <point x="1579" y="380" type="curve" smooth="yes"/>
      <point x="1579" y="658"/>
      <point x="1451" y="720"/>
      <point x="1299" y="720" type="curve" smooth="yes"/>
      <point x="744" y="720" type="line"/>
      <point x="744" y="740" type="line"/>
      <point x="1439" y="740" type="line" smooth="yes"/>
      <point x="1751" y="740"/>
      <point x="2089" y="610"/>
      <point x="2089" y="380" type="curve" smooth="yes"/>
      <point x="2089" y="130"/>
      <point x="1770.62" y="0"/>
    </contour>
    <contour>
      <point x="404" y="1400" type="line"/>
      <point x="806" y="1400" type="line"/>
      <point x="806" y="0" type="line"/>
      <point x="404" y="0" type="line"/>
    </contour>
    <contour>
      <point x="1361" y="730" type="curve" smooth="yes"/>
      <point x="744" y="730" type="line"/>
      <point x="744" y="750" type="line"/>
      <point x="1319" y="750" type="line" smooth="yes"/>
      <point x="1461" y="750"/>
      <point x="1569" y="830"/>
      <point x="1569" y="1068" type="curve" smooth="yes"/>
      <point x="1569" y="1306"/>
      <point x="1460.88" y="1370"/>
      <point x="1319" y="1370" type="curve" smooth="yes"/>
      <point x="806" y="1370" type="line"/>
      <point x="806" y="1400" type="line"/>
      <point x="1351" y="1400" type="line" smooth="yes"/>
      <point x="1720.38" y="1400"/>
      <point x="2011" y="1310"/>
      <point x="2011" y="1070" type="curve" smooth="yes"/>
      <point x="2011" y="850"/>
      <point x="1753" y="730"/>
    </contour>
  </outline>
</glyph>
<glyph name="C" format="2">
  <advance width="2212"/>
  <unicode hex="0043"/>
  <anchor x="1140" y="0" name="cedilla"/>
  <anchor x="1140" y="0" name="bottom"/>
  <anchor x="1141" y="1400" name="top"/>
  <outline>
    <contour>
      <point x="1990" y="1414" type="line"/>
      <point x="2010" y="1414" type="line"/>
      <point x="2010" y="903" type="line"/>
      <point x="1990" y="903" type="line"/>
      <point x="1804" y="1151"/>
      <point x="1523" y="1395"/>
      <point x="1151" y="1395" type="curve" smooth="yes"/>
      <point x="883" y="1395"/>
      <point x="630" y="1134"/>
      <point x="630" y="700" type="curve" smooth="yes"/>
      <point x="630" y="266"/>
      <point x="903" y="15"/>
      <point x="1240" y="15" type="curve" smooth="yes"/>
      <point x="1544" y="15"/>
      <point x="1896" y="109"/>
      <point x="2022" y="472" type="curve"/>
      <point x="2052" y="472" type="line"/>
      <point x="1922" y="86"/>
      <point x="1556" y="-20"/>
      <point x="1170" y="-20" type="curve" smooth="yes"/>
      <point x="634" y="-20"/>
      <point x="160" y="256"/>
      <point x="160" y="700" type="curve" smooth="yes"/>
      <point x="160" y="1144"/>
      <point x="624" y="1425"/>
      <point x="1140" y="1425" type="curve" smooth="yes"/>
      <point x="1352" y="1425"/>
      <point x="1507.64" y="1356.63"/>
      <point x="1667" y="1267" type="curve" smooth="yes"/>
      <point x="1691.23" y="1253.37"/>
      <point x="1747.05" y="1249.69"/>
      <point x="1817" y="1297" type="curve" smooth="yes"/>
    </contour>
  </outline>
</glyph>
<glyph name="D" format="2">
  <advance width="2244"/>
  <unicode hex="0044"/>
  <anchor x="1066" y="0" name="cedilla"/>
  <anchor x="1066" y="0" name="bottom"/>
  <anchor x="1084" y="1400" name="top"/>
  <outline>
    <contour>
      <point x="80" y="20" type="line"/>
      <point x="161.024" y="29"/>
      <point x="211.026" y="39.4219"/>
      <point x="276.292" y="65" type="curve" smooth="yes"/>
      <point x="376.712" y="104.355"/>
      <point x="404" y="120"/>
      <point x="404" y="175" type="curve"/>
      <point x="404" y="0" type="line"/>
      <point x="80" y="0" type="line"/>
    </contour>
    <contour>
      <point x="80" y="1380" type="curve"/>
      <point x="80" y="1400" type="line"/>
      <point x="404" y="1400" type="line"/>
      <point x="404" y="1225" type="line"/>
      <point x="404" y="1280"/>
      <point x="376.712" y="1295.64"/>
      <point x="276.292" y="1335" type="curve" smooth="yes"/>
      <point x="211.026" y="1360.58"/>
      <point x="161.024" y="1371"/>
    </contour>
    <contour>
      <point x="404" y="1400" type="line"/>
      <point x="806" y="1400" type="line"/>
      <point x="806" y="0" type="line"/>
      <point x="404" y="0" type="line"/>
    </contour>
    <contour>
      <point x="1224" y="0" type="curve" smooth="yes"/>
      <point x="806" y="0" type="line"/>
      <point x="806" y="30" type="line"/>
      <point x="1224" y="30" type="line" smooth="yes"/>
      <point x="1501.13" y="30"/>
      <point x="1664" y="176"/>
      <point x="1664" y="700" type="curve" smooth="yes"/>
      <point x="1664" y="1224"/>
      <point x="1482" y="1370"/>
      <point x="1224" y="1370" type="curve" smooth="yes"/>
      <point x="806" y="1370" type="line"/>
      <point x="806" y="1400" type="line"/>
      <point x="1224" y="1400" type="line" smooth="yes"/>
      <point x="1730" y="1400"/>
      <point x="2144" y="1116"/>
      <point x="2144" y="700" type="curve" smooth="yes"/>
      <point x="2144" y="284"/>
      <point x="1708.48" y="0"/>
    </contour>
  </outline>
</glyph>
<glyph name="F" format="2">
  <advance width="1932"/>
  <unicode hex="0046"/>
  <anchor x="636" y="0" name="bottom"/>
  <anchor x="1084" y="1400" name="top"/>
  <outline>
    <contour>
      <point x="1410" y="446" type="line"/>
      <point x="1369.9" y="513.232"/>
      <point x="1315.42" y="562.137"/>
      <point x="1270" y="614.265" type="curve" smooth="yes"/>
      <point x="1227.12" y="663.477"/>
      <point x="1187.81" y="711"/>
      <point x="1112" y="711" type="curve" smooth="yes"/>
      <point x="752" y="711" type="line"/>
      <point x="752" y="741" type="line"/>
      <point x="1112" y="741" type="line" smooth="yes"/>
      <point x="1184.92" y="741"/>
      <point x="1232.47" y="804.983"/>
      <point x="1278" y="863.43" type="curve" smooth="yes"/>
      <point x="1314.31" y="910.038"/>
      <point x="1383.71" y="1007.29"/>
      <point x="1410" y="1066" type="curve"/>
      <point x="1430" y="1066" type="line"/>
      <point x="1430" y="446" type="line"/>
    </contour>
    <contour>
      <point x="1130" y="20" type="curve"/>
      <point x="1130" y="0" type="line"/>
      <point x="806" y="0" type="line"/>
      <point x="806" y="175" type="line"/>
      <point x="806" y="120"/>
      <point x="833.288" y="104.355"/>
      <point x="933.708" y="65" type="curve" smooth="yes"/>
      <point x="998.974" y="39.4219"/>
      <point x="1048.98" y="29"/>
    </contour>
    <contour>
      <point x="80" y="20" type="line"/>
      <point x="161.024" y="29"/>
      <point x="211.026" y="39.4219"/>
      <point x="276.292" y="65" type="curve" smooth="yes"/>
      <point x="376.712" y="104.355"/>
      <point x="404" y="120"/>
      <point x="404" y="175" type="curve"/>
      <point x="404" y="0" type="line"/>
      <point x="80" y="0" type="line"/>
    </contour>
    <contour>
      <point x="80" y="1380" type="curve"/>
      <point x="80" y="1400" type="line"/>
      <point x="404" y="1400" type="line"/>
      <point x="404" y="1225" type="line"/>
      <point x="404" y="1280"/>
      <point x="376.712" y="1295.64"/>
      <point x="276.292" y="1335" type="curve" smooth="yes"/>
      <point x="211.026" y="1360.58"/>
      <point x="161.024" y="1371"/>
    </contour>
    <contour>
      <point x="404" y="1400" type="line"/>
      <point x="806" y="1400" type="line"/>
      <point x="806" y="0" type="line"/>
      <point x="404" y="0" type="line"/>
    </contour>
    <contour>
      <point x="806" y="1400" type="line"/>
      <point x="1904" y="1400" type="line"/>
      <point x="1904" y="920" type="line"/>
      <point x="1884" y="920" type="line"/>
      <point x="1824.67" y="1014.62"/>
      <point x="1747.2" y="1097.5"/>
      <point x="1658" y="1189.5" type="curve" smooth="yes"/>
      <point x="1566.74" y="1283.61"/>
      <point x="1495.84" y="1370"/>
      <point x="1352" y="1370" type="curve" smooth="yes"/>
      <point x="806" y="1370" type="line"/>
    </contour>
  </outline>
</glyph>
<glyph name="G" format="2">
  <advance width="2476"/>
  <unicode hex="0047"/>
  <anchor x="1141" y="1400" name="top"/>
  <anchor x="1240" y="0" name="bottom"/>
  <anchor x="1240" y="0" name="cedilla"/>
  <outline>
    <contour>
      <point x="1406" y="620" type="curve"/>
      <point x="1406" y="640" type="line"/>
      <point x="1730" y="640" type="line"/>
      <point x="1730" y="465" type="line"/>
      <point x="1730" y="520"/>
      <point x="1702" y="536"/>
      <point x="1602" y="575" type="curve" smooth="yes"/>
      <point x="1537" y="601"/>
      <point x="1487" y="611"/>
    </contour>
    <contour>
      <point x="2456" y="620" type="line"/>
      <point x="2375" y="611"/>
      <point x="2325" y="601"/>
      <point x="2260" y="575" type="curve" smooth="yes"/>
      <point x="2160" y="536"/>
      <point x="2132" y="520"/>
      <point x="2132" y="465" type="curve"/>
      <point x="2132" y="640" type="line"/>
      <point x="2456" y="640" type="line"/>
    </contour>
    <contour>
      <point x="2070" y="1414" type="line"/>
      <point x="2090" y="1414" type="line"/>
      <point x="2090" y="903" type="line"/>
      <point x="2070" y="903" type="line"/>
      <point x="1894" y="1181"/>
      <point x="1553" y="1391"/>
      <point x="1201" y="1391" type="curve" smooth="yes"/>
      <point x="893" y="1391"/>
      <point x="630" y="1134"/>
      <point x="630" y="700" type="curve" smooth="yes"/>
      <point x="630" y="266"/>
      <point x="892" y="10"/>
      <point x="1260" y="10" type="curve" smooth="yes"/>
      <point x="1384" y="10"/>
      <point x="1554" y="27"/>
      <point x="1629" y="78" type="curve" smooth="yes"/>
      <point x="1663" y="101"/>
      <point x="1730" y="150"/>
      <point x="1730" y="200" type="curve" smooth="yes"/>
      <point x="1730" y="640" type="line"/>
      <point x="2132" y="640" type="line"/>
      <point x="2132" y="245" type="line" smooth="yes"/>
      <point x="2132" y="150"/>
      <point x="2147" y="133"/>
      <point x="2168" y="108" type="curve" smooth="yes"/>
      <point x="2189" y="83"/>
      <point x="2217" y="59"/>
      <point x="2249" y="36" type="curve"/>
      <point x="2240" y="22" type="line"/>
      <point x="2212" y="38.7568"/>
      <point x="2160.36" y="67.3975"/>
      <point x="2132" y="80" type="curve" smooth="yes"/>
      <point x="2078" y="104"/>
      <point x="2024" y="115"/>
      <point x="1960" y="115" type="curve" smooth="yes"/>
      <point x="1870" y="115"/>
      <point x="1800" y="95"/>
      <point x="1730" y="70" type="curve" smooth="yes"/>
      <point x="1610" y="24"/>
      <point x="1476" y="-20"/>
      <point x="1240" y="-20" type="curve" smooth="yes"/>
      <point x="634" y="-20"/>
      <point x="160" y="256"/>
      <point x="160" y="700" type="curve" smooth="yes"/>
      <point x="160" y="1144"/>
      <point x="664" y="1425"/>
      <point x="1180" y="1425" type="curve" smooth="yes"/>
      <point x="1392" y="1425"/>
      <point x="1588" y="1357"/>
      <point x="1747" y="1267" type="curve" smooth="yes"/>
      <point x="1771" y="1253"/>
      <point x="1827" y="1250"/>
      <point x="1897" y="1297" type="curve" smooth="yes"/>
    </contour>
  </outline>
</glyph>
<glyph name="H" format="2">
  <advance width="2415"/>
  <unicode hex="0048"/>
  <anchor x="591" y="0" name="cedilla"/>
  <anchor x="1206" y="0" name="bottom"/>
  <anchor x="1205" y="1400" name="top"/>
  <outline>
    <contour>
      <point x="794" y="711" type="line"/>
      <point x="794" y="740" type="line"/>
      <point x="1646" y="740" type="line"/>
      <point x="1646" y="711" type="line"/>
    </contour>
    <contour>
      <point x="2335" y="1380" type="line"/>
      <point x="2253.98" y="1371"/>
      <point x="2203.97" y="1360.58"/>
      <point x="2138.71" y="1335" type="curve" smooth="yes"/>
      <point x="2038.29" y="1295.64"/>
      <point x="2011" y="1280"/>
      <point x="2011" y="1225" type="curve"/>
      <point x="2011" y="1400" type="line"/>
      <point x="2335" y="1400" type="line"/>
    </contour>
    <contour>
      <point x="2335" y="20" type="curve"/>
      <point x="2335" y="0" type="line"/>
      <point x="2011" y="0" type="line"/>
      <point x="2011" y="175" type="line"/>
      <point x="2011" y="120"/>
      <point x="2038.29" y="104.355"/>
      <point x="2138.71" y="65" type="curve" smooth="yes"/>
      <point x="2203.97" y="39.4219"/>
      <point x="2253.98" y="29"/>
    </contour>
    <contour>
      <point x="1130" y="1380" type="line"/>
      <point x="1048.98" y="1371"/>
      <point x="998.974" y="1360.58"/>
      <point x="933.708" y="1335" type="curve" smooth="yes"/>
      <point x="833.288" y="1295.64"/>
      <point x="806" y="1280"/>
      <point x="806" y="1225" type="curve"/>
      <point x="806" y="1400" type="line"/>
      <point x="1130" y="1400" type="line"/>
    </contour>
    <contour>
      <point x="1130" y="20" type="curve"/>
      <point x="1130" y="0" type="line"/>
      <point x="806" y="0" type="line"/>
      <point x="806" y="175" type="line"/>
      <point x="806" y="120"/>
      <point x="833.288" y="104.355"/>
      <point x="933.708" y="65" type="curve" smooth="yes"/>
      <point x="998.974" y="39.4219"/>
      <point x="1048.98" y="29"/>
    </contour>
    <contour>
      <point x="1285" y="20" type="line"/>
      <point x="1366.02" y="29"/>
      <point x="1416.03" y="39.4219"/>
      <point x="1481.29" y="65" type="curve" smooth="yes"/>
      <point x="1581.71" y="104.355"/>
      <point x="1609" y="120"/>
      <point x="1609" y="175" type="curve"/>
      <point x="1609" y="0" type="line"/>
      <point x="1285" y="0" type="line"/>
    </contour>
    <contour>
      <point x="1285" y="1380" type="curve"/>
      <point x="1285" y="1400" type="line"/>
      <point x="1609" y="1400" type="line"/>
      <point x="1609" y="1225" type="line"/>
      <point x="1609" y="1280"/>
      <point x="1581.71" y="1295.64"/>
      <point x="1481.29" y="1335" type="curve" smooth="yes"/>
      <point x="1416.03" y="1360.58"/>
      <point x="1366.02" y="1371"/>
    </contour>
    <contour>
      <point x="80" y="20" type="line"/>
      <point x="161.024" y="29"/>
      <point x="211.026" y="39.4219"/>
      <point x="276.292" y="65" type="curve" smooth="yes"/>
      <point x="376.712" y="104.355"/>
      <point x="404" y="120"/>
      <point x="404" y="175" type="curve"/>
      <point x="404" y="0" type="line"/>
      <point x="80" y="0" type="line"/>
    </contour>
    <contour>
      <point x="80" y="1380" type="curve"/>
      <point x="80" y="1400" type="line"/>
      <point x="404" y="1400" type="line"/>
      <point x="404" y="1225" type="line"/>
      <point x="404" y="1280"/>
      <point x="376.712" y="1295.64"/>
      <point x="276.292" y="1335" type="curve" smooth="yes"/>
      <point x="211.026" y="1360.58"/>
      <point x="161.024" y="1371"/>
    </contour>
    <contour>
      <point x="1609" y="1400" type="line"/>
      <point x="2011" y="1400" type="line"/>
      <point x="2011" y="0" type="line"/>
      <point x="1609" y="0" type="line"/>
    </contour>
    <contour>
      <point x="404" y="1400" type="line"/>
      <point x="806" y="1400" type="line"/>
      <point x="806" y="0" type="line"/>
      <point x="404" y="0" type="line"/>
    </contour>
  </outline>
</glyph>
<glyph name="I" format="2">
  <advance width="1210"/>
  <unicode hex="0049"/>
  <anchor x="606" y="0" name="cedilla"/>
  <anchor x="606" y="0" name="bottom"/>
  <anchor x="602" y="1400" name="top"/>
  <outline>
    <contour>
      <point x="1130" y="1380" type="line"/>
      <point x="1048.98" y="1371"/>
      <point x="998.974" y="1360.58"/>
      <point x="933.708" y="1335" type="curve" smooth="yes"/>
      <point x="833.288" y="1295.64"/>
      <point x="806" y="1280"/>
      <point x="806" y="1225" type="curve"/>
      <point x="806" y="1400" type="line"/>
      <point x="1130" y="1400" type="line"/>
    </contour>
    <contour>
      <point x="1130" y="20" type="curve"/>
      <point x="1130" y="0" type="line"/>
      <point x="806" y="0" type="line"/>
      <point x="806" y="175" type="line"/>
      <point x="806" y="120"/>
      <point x="833.288" y="104.355"/>
      <point x="933.708" y="65" type="curve" smooth="yes"/>
      <point x="998.974" y="39.4219"/>
      <point x="1048.98" y="29"/>
    </contour>
    <contour>
      <point x="80" y="20" type="line"/>
      <point x="161.024" y="29"/>
      <point x="211.026" y="39.4219"/>
      <point x="276.292" y="65" type="curve" smooth="yes"/>
      <point x="376.712" y="104.355"/>
      <point x="404" y="120"/>
      <point x="404" y="175" type="curve"/>
      <point x="404" y="0" type="line"/>
      <point x="80" y="0" type="line"/>
    </contour>
    <contour>
      <point x="80" y="1380" type="curve"/>
      <point x="80" y="1400" type="line"/>
      <point x="404" y="1400" type="line"/>
      <point x="404" y="1225" type="line"/>
      <point x="404" y="1280"/>
      <point x="376.712" y="1295.64"/>
      <point x="276.292" y="1335" type="curve" smooth="yes"/>
      <point x="211.026" y="1360.58"/>
      <point x="161.024" y="1371"/>
    </contour>
    <contour>
      <point x="404" y="1400" type="line"/>
      <point x="806" y="1400" type="line"/>
      <point x="806" y="0" type="line"/>
      <point x="404" y="0" type="line"/>
    </contour>
  </outline>
</glyph>
<glyph name="J" format="2">
  <advance width="1709"/>
  <unicode hex="004A"/>
  <anchor x="595" y="0" name="bottom"/>
  <anchor x="976" y="1400" name="top"/>
  <outline>
    <contour>
      <point x="599" y="1380" type="curve"/>
      <point x="599" y="1400" type="line"/>
      <point x="923" y="1400" type="line"/>
      <point x="923" y="1225" type="line"/>
      <point x="923" y="1280"/>
      <point x="895" y="1296"/>
      <point x="795" y="1335" type="curve" smooth="yes"/>
      <point x="730" y="1361"/>
      <point x="680" y="1371"/>
    </contour>
    <contour>
      <point x="1649" y="1380" type="line"/>
      <point x="1568" y="1371"/>
      <point x="1518" y="1361"/>
      <point x="1453" y="1335" type="curve" smooth="yes"/>
      <point x="1353" y="1296"/>
      <point x="1325" y="1280"/>
      <point x="1325" y="1225" type="curve"/>
      <point x="1325" y="1400" type="line"/>
      <point x="1649" y="1400" type="line"/>
    </contour>
    <contour>
      <point x="923" y="1400" type="line"/>
      <point x="1325" y="1400" type="line"/>
      <point x="1325" y="359" type="line" smooth="yes"/>
      <point x="1325" y="340.868"/>
      <point x="1318.61" y="325.465"/>
      <point x="1312.28" y="316" type="curve" smooth="yes"/>
      <point x="1148.64" y="71.4932"/>
      <point x="877.139" y="-61"/>
      <point x="602" y="-61" type="curve" smooth="yes"/>
      <point x="348" y="-61"/>
      <point x="60" y="130"/>
      <point x="60" y="330" type="curve" smooth="yes"/>
      <point x="60" y="474"/>
      <point x="173" y="575"/>
      <point x="304" y="575" type="curve" smooth="yes"/>
      <point x="424" y="575"/>
      <point x="547" y="485"/>
      <point x="547" y="343" type="curve" smooth="yes"/>
      <point x="547" y="227"/>
      <point x="473" y="168"/>
      <point x="344" y="168" type="curve" smooth="yes"/>
      <point x="299" y="168"/>
      <point x="270" y="157"/>
      <point x="270" y="133" type="curve" smooth="yes"/>
      <point x="270" y="120"/>
      <point x="276.765" y="104.742"/>
      <point x="302" y="78" type="curve" smooth="yes"/>
      <point x="369" y="7"/>
      <point x="468" y="-31"/>
      <point x="597" y="-31" type="curve" smooth="yes"/>
      <point x="770" y="-31"/>
      <point x="923" y="101"/>
      <point x="923" y="380" type="curve" smooth="yes"/>
    </contour>
  </outline>
</glyph>
<glyph name="K" format="2">
  <advance width="2457"/>
  <unicode hex="004B"/>
  <anchor x="1226" y="0" name="cedilla"/>
  <anchor x="1226" y="0" name="bottom"/>
  <anchor x="1174" y="1400" name="top"/>
  <outline>
    <contour>
      <point x="721" y="479" type="line"/>
      <point x="1658.44" y="1226.92" type="line" smooth="yes"/>
      <point x="1689.3" y="1251.54"/>
      <point x="1656.02" y="1286.43"/>
      <point x="1610.29" y="1318" type="curve" smooth="yes"/>
      <point x="1568.46" y="1346.89"/>
      <point x="1511.02" y="1371"/>
      <point x="1427" y="1380" type="curve"/>
      <point x="1427" y="1400" type="line"/>
      <point x="2061" y="1400" type="line"/>
      <point x="2061" y="1380" type="line"/>
      <point x="2014.98" y="1376"/>
      <point x="1970.65" y="1357.83"/>
      <point x="1890.71" y="1325" type="curve" smooth="yes"/>
      <point x="1830.58" y="1300.31"/>
      <point x="1736.78" y="1253.51"/>
      <point x="1682" y="1210" type="curve" smooth="yes"/>
      <point x="721" y="441" type="line"/>
    </contour>
    <contour>
      <point x="1130" y="20" type="curve"/>
      <point x="1130" y="0" type="line"/>
      <point x="806" y="0" type="line"/>
      <point x="806" y="175" type="line"/>
      <point x="806" y="120"/>
      <point x="834" y="104"/>
      <point x="934" y="65" type="curve" smooth="yes"/>
      <point x="999" y="39"/>
      <point x="1049" y="29"/>
    </contour>
    <contour>
      <point x="80" y="20" type="line"/>
      <point x="161" y="29"/>
      <point x="211" y="39"/>
      <point x="276" y="65" type="curve" smooth="yes"/>
      <point x="376" y="104"/>
      <point x="404" y="120"/>
      <point x="404" y="175" type="curve"/>
      <point x="404" y="0" type="line"/>
      <point x="80" y="0" type="line"/>
    </contour>
    <contour>
      <point x="80" y="1380" type="curve"/>
      <point x="80" y="1400" type="line"/>
      <point x="404" y="1400" type="line"/>
      <point x="404" y="1225" type="line"/>
      <point x="404" y="1280"/>
      <point x="376" y="1296"/>
      <point x="276" y="1335" type="curve" smooth="yes"/>
      <point x="211" y="1361"/>
      <point x="161" y="1371"/>
    </contour>
    <contour>
      <point x="1130" y="1380" type="line"/>
      <point x="1049" y="1371"/>
      <point x="999" y="1361"/>
      <point x="934" y="1335" type="curve" smooth="yes"/>
      <point x="834.341" y="1295.14"/>
      <point x="806" y="1280"/>
      <point x="806" y="1225" type="curve"/>
      <point x="806" y="1400" type="line"/>
      <point x="1130" y="1400" type="line"/>
    </contour>
    <contour>
      <point x="404" y="1400" type="line"/>
      <point x="806" y="1400" type="line"/>
      <point x="806" y="0" type="line"/>
      <point x="404" y="0" type="line"/>
    </contour>
    <contour>
      <point x="997" y="681" type="line"/>
      <point x="1337" y="960" type="line"/>
      <point x="2079" y="160" type="line" smooth="yes"/>
      <point x="2113.85" y="122.426"/>
      <point x="2167.3" y="92.3789"/>
      <point x="2226.71" y="64" type="curve" smooth="yes"/>
      <point x="2299.71" y="29.1299"/>
      <point x="2332.98" y="25"/>
      <point x="2407" y="20" type="curve"/>
      <point x="2407" y="0" type="line"/>
      <point x="2197" y="0" type="line"/>
      <point x="1657" y="0" type="line"/>
      <point x="1293" y="0" type="line"/>
      <point x="1293" y="20" type="line"/>
      <point x="1377.02" y="22"/>
      <point x="1439.03" y="50.7422"/>
      <point x="1479.29" y="79" type="curve" smooth="yes"/>
      <point x="1524.32" y="110.6"/>
      <point x="1550.81" y="147.685"/>
      <point x="1524.44" y="173.085" type="curve" smooth="yes"/>
    </contour>
  </outline>
</glyph>
<glyph name="L" format="2">
  <advance width="1984"/>
  <unicode hex="004C"/>
  <anchor x="1006" y="0" name="cedilla"/>
  <anchor x="1006" y="0" name="bottom"/>
  <anchor x="604" y="1400" name="top"/>
  <outline>
    <contour>
      <point x="1130" y="1380" type="line"/>
      <point x="1049" y="1371"/>
      <point x="999" y="1361"/>
      <point x="934" y="1335" type="curve" smooth="yes"/>
      <point x="834.341" y="1295.14"/>
      <point x="806" y="1280"/>
      <point x="806" y="1225" type="curve"/>
      <point x="806" y="1400" type="line"/>
      <point x="1130" y="1400" type="line"/>
    </contour>
    <contour>
      <point x="80" y="20" type="line"/>
      <point x="161.024" y="29"/>
      <point x="211.026" y="39.4219"/>
      <point x="276.292" y="65" type="curve" smooth="yes"/>
      <point x="376.712" y="104.355"/>
      <point x="404" y="120"/>
      <point x="404" y="175" type="curve"/>
      <point x="404" y="0" type="line"/>
      <point x="80" y="0" type="line"/>
    </contour>
    <contour>
      <point x="404" y="1400" type="line"/>
      <point x="806" y="1400" type="line"/>
      <point x="806" y="0" type="line"/>
      <point x="404" y="0" type="line"/>
    </contour>
    <contour>
      <point x="1884" y="550" type="curve"/>
      <point x="1904" y="550" type="line"/>
      <point x="1904" y="0" type="line"/>
      <point x="806" y="0" type="line"/>
      <point x="806" y="30" type="line"/>
      <point x="1282" y="30" type="line" smooth="yes"/>
      <point x="1437.87" y="30"/>
      <point x="1512.27" y="112.116"/>
      <point x="1663" y="268.281" type="curve" smooth="yes"/>
      <point x="1797.73" y="407.871"/>
      <point x="1855.43" y="479.046"/>
    </contour>
    <contour>
      <point x="80" y="1380" type="curve"/>
      <point x="80" y="1400" type="line"/>
      <point x="404" y="1400" type="line"/>
      <point x="404" y="1225" type="line"/>
      <point x="404" y="1280"/>
      <point x="376.712" y="1295.64"/>
      <point x="276.292" y="1335" type="curve" smooth="yes"/>
      <point x="211.026" y="1360.58"/>
      <point x="161.024" y="1371"/>
    </contour>
  </outline>
</glyph>
<glyph name="M" format="2">
  <advance width="2600"/>
  <unicode hex="004D"/>
  <anchor x="1176" y="0" name="bottom"/>
  <anchor x="1234" y="1400" name="top"/>
  <outline>
    <contour>
      <point x="611" y="23" type="curve" smooth="yes"/>
      <point x="670" y="20" type="line"/>
      <point x="670" y="0" type="line"/>
      <point x="390" y="0" type="line"/>
      <point x="390" y="335" type="line"/>
      <point x="390" y="314.796"/>
      <point x="394.214" y="301.255"/>
      <point x="400.956" y="286" type="curve" smooth="yes"/>
      <point x="420.644" y="241.453"/>
      <point x="475.3" y="154.252"/>
      <point x="497.708" y="122" type="curve" smooth="yes"/>
      <point x="535.14" y="68.124"/>
      <point x="564.247" y="25.377"/>
    </contour>
    <contour>
      <point x="139" y="23" type="line" smooth="yes"/>
      <point x="185.753" y="25.377"/>
      <point x="214.86" y="68.124"/>
      <point x="252.292" y="122" type="curve" smooth="yes"/>
      <point x="274.7" y="154.252"/>
      <point x="329.356" y="241.453"/>
      <point x="349.044" y="286" type="curve" smooth="yes"/>
      <point x="355.786" y="301.255"/>
      <point x="360" y="314.796"/>
      <point x="360" y="335" type="curve"/>
      <point x="360" y="0" type="line"/>
      <point x="80" y="0" type="line"/>
      <point x="80" y="20" type="line"/>
    </contour>
    <contour>
      <point x="1840" y="1400" type="line"/>
      <point x="1875" y="1400" type="line"/>
      <point x="1180" y="0" type="line"/>
      <point x="1180" y="80" type="line"/>
    </contour>
    <contour>
      <point x="730" y="1400" type="line"/>
      <point x="1380" y="420" type="line"/>
      <point x="1180" y="0" type="line"/>
      <point x="255" y="1400" type="line"/>
      <point x="390" y="1400" type="line"/>
    </contour>
    <contour>
      <point x="1560" y="20" type="line"/>
      <point x="2520" y="20" type="line"/>
      <point x="2520" y="0" type="line"/>
      <point x="2200" y="0"/>
      <point x="1880" y="0"/>
      <point x="1560" y="0" type="curve"/>
    </contour>
    <contour>
      <point x="2520" y="1400" type="line"/>
      <point x="2520" y="1380" type="line"/>
      <point x="2240" y="1380" type="line"/>
      <point x="2240" y="0" type="line"/>
      <point x="1840" y="0" type="line"/>
      <point x="1840" y="1400" type="line"/>
    </contour>
    <contour>
      <point x="390" y="1400" type="line"/>
      <point x="390" y="0" type="line"/>
      <point x="360" y="0" type="line"/>
      <point x="360" y="1400" type="line"/>
    </contour>
    <contour>
      <point x="80" y="1380" type="line"/>
      <point x="80" y="1400" type="line"/>
      <point x="290" y="1400" type="line"/>
      <point x="290" y="1380" type="line"/>
    </contour>
    <contour>
      <point x="360" y="1380" type="line"/>
      <point x="360" y="1240" type="line"/>
      <point x="330" y="1280"/>
      <point x="310.236" y="1299.77"/>
      <point x="272.292" y="1321" type="curve" smooth="yes"/>
      <point x="229.365" y="1345.02"/>
      <point x="164.024" y="1380"/>
      <point x="100" y="1380" type="curve"/>
    </contour>
    <contour>
      <point x="2240" y="1380" type="line"/>
      <point x="2498" y="1380" type="line"/>
      <point x="2436.98" y="1380"/>
      <point x="2380.63" y="1352.02"/>
      <point x="2337.71" y="1326" type="curve" smooth="yes"/>
      <point x="2300.52" y="1303.46"/>
      <point x="2240" y="1265"/>
      <point x="2240" y="1225" type="curve"/>
    </contour>
    <contour>
      <point x="1840" y="20" type="line"/>
      <point x="1582" y="20" type="line"/>
      <point x="1643.02" y="20"/>
      <point x="1699.37" y="47.9785"/>
      <point x="1742.29" y="74" type="curve" smooth="yes"/>
      <point x="1779.48" y="96.54"/>
      <point x="1840" y="135"/>
      <point x="1840" y="175" type="curve"/>
    </contour>
    <contour>
      <point x="2240" y="20" type="line"/>
      <point x="2240" y="175" type="line"/>
      <point x="2240" y="135"/>
      <point x="2300.52" y="96.54"/>
      <point x="2337.71" y="74" type="curve" smooth="yes"/>
      <point x="2380.63" y="47.9785"/>
      <point x="2436.98" y="20"/>
      <point x="2498" y="20" type="curve"/>
    </contour>
  </outline>
</glyph>
<glyph name="N" format="2">
  <advance width="2154"/>
  <unicode hex="004E"/>
  <anchor x="1107" y="0" name="bottom"/>
  <anchor x="1135" y="1400" name="top"/>
  <outline>
    <contour>
      <point x="671" y="23" type="curve" smooth="yes"/>
      <point x="730" y="20" type="line"/>
      <point x="730" y="0" type="line"/>
      <point x="450" y="0" type="line"/>
      <point x="450" y="335" type="line"/>
      <point x="450" y="314.796"/>
      <point x="454.214" y="301.255"/>
      <point x="460.956" y="286" type="curve" smooth="yes"/>
      <point x="480.644" y="241.453"/>
      <point x="535.3" y="154.252"/>
      <point x="557.708" y="122" type="curve" smooth="yes"/>
      <point x="595.14" y="68.124"/>
      <point x="624.247" y="25.377"/>
    </contour>
    <contour>
      <point x="199" y="23" type="line" smooth="yes"/>
      <point x="245.753" y="25.377"/>
      <point x="274.86" y="68.124"/>
      <point x="312.292" y="122" type="curve" smooth="yes"/>
      <point x="334.7" y="154.252"/>
      <point x="389.356" y="241.453"/>
      <point x="409.044" y="286" type="curve" smooth="yes"/>
      <point x="415.786" y="301.255"/>
      <point x="420" y="314.796"/>
      <point x="420" y="335" type="curve"/>
      <point x="420" y="0" type="line"/>
      <point x="140" y="0" type="line"/>
      <point x="140" y="20" type="line"/>
    </contour>
    <contour>
      <point x="1583" y="1377" type="curve" smooth="yes"/>
      <point x="1524" y="1380" type="line"/>
      <point x="1524" y="1400" type="line"/>
      <point x="1804" y="1400" type="line"/>
      <point x="1804" y="1065" type="line"/>
      <point x="1804" y="1085.2"/>
      <point x="1799.79" y="1098.75"/>
      <point x="1793.04" y="1114" type="curve" smooth="yes"/>
      <point x="1773.36" y="1158.55"/>
      <point x="1718.7" y="1245.75"/>
      <point x="1696.29" y="1278" type="curve" smooth="yes"/>
      <point x="1658.86" y="1331.88"/>
      <point x="1629.75" y="1374.62"/>
    </contour>
    <contour>
      <point x="2055" y="1377" type="line" smooth="yes"/>
      <point x="2008.25" y="1374.62"/>
      <point x="1979.14" y="1331.88"/>
      <point x="1941.71" y="1278" type="curve" smooth="yes"/>
      <point x="1919.3" y="1245.75"/>
      <point x="1864.64" y="1158.55"/>
      <point x="1844.96" y="1114" type="curve" smooth="yes"/>
      <point x="1838.21" y="1098.75"/>
      <point x="1834" y="1085.2"/>
      <point x="1834" y="1065" type="curve"/>
      <point x="1834" y="1400" type="line"/>
      <point x="2114" y="1400" type="line"/>
      <point x="2114" y="1380" type="line"/>
    </contour>
    <contour>
      <point x="1804" y="0" type="move"/>
    </contour>
    <contour>
      <point x="1804" y="0" type="line"/>
      <point x="1804" y="1400" type="line"/>
      <point x="1834" y="1400" type="line"/>
      <point x="1834" y="0" type="line"/>
    </contour>
    <contour>
      <point x="760" y="1400" type="line"/>
      <point x="1834" y="450" type="line"/>
      <point x="1834" y="-90" type="line"/>
      <point x="185" y="1400" type="line"/>
      <point x="450" y="1400" type="line"/>
    </contour>
    <contour>
      <point x="450" y="1400" type="line"/>
      <point x="450" y="0" type="line"/>
      <point x="420" y="0" type="line"/>
      <point x="420" y="1400" type="line"/>
    </contour>
    <contour>
      <point x="80" y="1380" type="line"/>
      <point x="80" y="1400" type="line"/>
      <point x="290" y="1400" type="line"/>
      <point x="290" y="1380" type="line"/>
    </contour>
    <contour>
      <point x="420" y="1380" type="line"/>
      <point x="420" y="1184" type="line"/>
      <point x="272.292" y="1301" type="line" smooth="yes"/>
      <point x="234" y="1332"/>
      <point x="164.024" y="1380"/>
      <point x="100" y="1380" type="curve"/>
    </contour>
  </outline>
</glyph>
<glyph name="O" format="2">
  <advance width="2320"/>
  <unicode hex="004F"/>
  <anchor x="1160" y="0" name="bottom"/>
  <anchor x="1160" y="1400" name="top"/>
  <outline>
    <contour>
      <point x="1160" y="-20" type="curve" smooth="yes"/>
      <point x="646" y="-20"/>
      <point x="160" y="256"/>
      <point x="160" y="700" type="curve" smooth="yes"/>
      <point x="160" y="1144"/>
      <point x="664" y="1420"/>
      <point x="1160" y="1420" type="curve" smooth="yes"/>
      <point x="1656" y="1420"/>
      <point x="2160" y="1144"/>
      <point x="2160" y="700" type="curve" smooth="yes"/>
      <point x="2160" y="256"/>
      <point x="1674" y="-20"/>
    </contour>
    <contour>
      <point x="1160" y="1395" type="curve" smooth="yes"/>
      <point x="812" y="1395"/>
      <point x="630" y="1164"/>
      <point x="630" y="700" type="curve" smooth="yes"/>
      <point x="630" y="236"/>
      <point x="792" y="5"/>
      <point x="1160" y="5" type="curve" smooth="yes"/>
      <point x="1568" y="5"/>
      <point x="1690" y="236"/>
      <point x="1690" y="700" type="curve" smooth="yes"/>
      <point x="1690" y="1164"/>
      <point x="1548" y="1395"/>
    </contour>
  </outline>
</glyph>
<glyph name="P" format="2">
  <advance width="2134"/>
  <unicode hex="0050"/>
  <anchor x="596" y="0" name="bottom"/>
  <anchor x="1074" y="1400" name="top"/>
  <outline>
    <contour>
      <point x="1130" y="20" type="curve"/>
      <point x="1130" y="0" type="line"/>
      <point x="806" y="0" type="line"/>
      <point x="806" y="175" type="line"/>
      <point x="806" y="120"/>
      <point x="834" y="104"/>
      <point x="934" y="65" type="curve" smooth="yes"/>
      <point x="999" y="39"/>
      <point x="1049" y="29"/>
    </contour>
    <contour>
      <point x="80" y="20" type="line"/>
      <point x="161" y="29"/>
      <point x="211" y="39"/>
      <point x="276" y="65" type="curve" smooth="yes"/>
      <point x="376" y="104"/>
      <point x="404" y="120"/>
      <point x="404" y="175" type="curve"/>
      <point x="404" y="0" type="line"/>
      <point x="80" y="0" type="line"/>
    </contour>
    <contour>
      <point x="80" y="1380" type="curve"/>
      <point x="80" y="1400" type="line"/>
      <point x="404" y="1400" type="line"/>
      <point x="404" y="1225" type="line"/>
      <point x="404" y="1280"/>
      <point x="376" y="1296"/>
      <point x="276" y="1335" type="curve" smooth="yes"/>
      <point x="211" y="1361"/>
      <point x="161" y="1371"/>
    </contour>
    <contour>
      <point x="404" y="1400" type="line"/>
      <point x="806" y="1400" type="line"/>
      <point x="806" y="0" type="line"/>
      <point x="404" y="0" type="line"/>
    </contour>
    <contour>
      <point x="1414" y="628" type="curve" smooth="yes"/>
      <point x="694" y="628" type="line"/>
      <point x="694" y="658" type="line"/>
      <point x="1354" y="658" type="line" smooth="yes"/>
      <point x="1506" y="658"/>
      <point x="1614" y="786"/>
      <point x="1614" y="1014" type="curve" smooth="yes"/>
      <point x="1614" y="1242"/>
      <point x="1506" y="1370"/>
      <point x="1354" y="1370" type="curve" smooth="yes"/>
      <point x="702" y="1370" type="line"/>
      <point x="702" y="1400" type="line"/>
      <point x="1414" y="1400" type="line" smooth="yes"/>
      <point x="1776" y="1400"/>
      <point x="2054" y="1274"/>
      <point x="2054" y="1014" type="curve" smooth="yes"/>
      <point x="2054" y="754"/>
      <point x="1776" y="628"/>
    </contour>
  </outline>
</glyph>
<glyph name="Q" format="2">
  <advance width="2326"/>
  <unicode hex="0051"/>
  <anchor x="1166" y="1400" name="top"/>
  <outline>
    <contour>
      <point x="863" y="14" type="line"/>
      <point x="863" y="168.628"/>
      <point x="971.868" y="238"/>
      <point x="1121" y="238" type="curve" smooth="yes"/>
      <point x="1294.12" y="238"/>
      <point x="1410.79" y="115.358"/>
      <point x="1518" y="-11.9336" type="curve" smooth="yes"/>
      <point x="1633.67" y="-149.26"/>
      <point x="1748.33" y="-292"/>
      <point x="1901" y="-292" type="curve" smooth="yes"/>
      <point x="2039" y="-292"/>
      <point x="2068" y="-210"/>
      <point x="2078" y="-66" type="curve"/>
      <point x="2098" y="-66" type="line"/>
      <point x="2098" y="-363.786"/>
      <point x="1960.84" y="-502"/>
      <point x="1701" y="-502" type="curve" smooth="yes"/>
      <point x="1442.21" y="-502"/>
      <point x="1325.83" y="-320.038"/>
      <point x="1267.01" y="-143" type="curve" smooth="yes"/>
      <point x="1210.28" y="27.7568"/>
      <point x="1171.36" y="188"/>
      <point x="1041" y="188" type="curve" smooth="yes"/>
      <point x="949" y="188"/>
      <point x="893" y="134"/>
      <point x="893" y="14" type="curve"/>
    </contour>
    <contour>
      <point x="1166" y="-20" type="curve" smooth="yes"/>
      <point x="652" y="-20"/>
      <point x="166" y="256"/>
      <point x="166" y="700" type="curve" smooth="yes"/>
      <point x="166" y="1144"/>
      <point x="670" y="1420"/>
      <point x="1166" y="1420" type="curve" smooth="yes"/>
      <point x="1662" y="1420"/>
      <point x="2166" y="1144"/>
      <point x="2166" y="700" type="curve" smooth="yes"/>
      <point x="2166" y="256"/>
      <point x="1680" y="-20"/>
    </contour>
    <contour>
      <point x="1166" y="1395" type="curve" smooth="yes"/>
      <point x="818" y="1395"/>
      <point x="636" y="1164"/>
      <point x="636" y="700" type="curve" smooth="yes"/>
      <point x="636" y="236"/>
      <point x="798" y="5"/>
      <point x="1166" y="5" type="curve" smooth="yes"/>
      <point x="1574" y="5"/>
      <point x="1696" y="236"/>
      <point x="1696" y="700" type="curve" smooth="yes"/>
      <point x="1696" y="1164"/>
      <point x="1554" y="1395"/>
    </contour>
  </outline>
</glyph>
<glyph name="R" format="2">
  <advance width="2340"/>
  <unicode hex="0052"/>
  <anchor x="594" y="0" name="cedilla"/>
  <anchor x="1246" y="0" name="bottom"/>
  <anchor x="1044" y="1400" name="top"/>
  <outline>
    <contour>
      <point x="1414" y="648" type="curve" smooth="yes"/>
      <point x="694" y="648" type="line"/>
      <point x="694" y="678" type="line"/>
      <point x="1354" y="678" type="line" smooth="yes"/>
      <point x="1506" y="678"/>
      <point x="1614" y="796"/>
      <point x="1614" y="1024" type="curve" smooth="yes"/>
      <point x="1614" y="1252"/>
      <point x="1506" y="1370"/>
      <point x="1354" y="1370" type="curve" smooth="yes"/>
      <point x="702" y="1370" type="line"/>
      <point x="702" y="1400" type="line"/>
      <point x="1414" y="1400" type="line" smooth="yes"/>
      <point x="1776" y="1400"/>
      <point x="2054" y="1284"/>
      <point x="2054" y="1024" type="curve" smooth="yes"/>
      <point x="2054" y="764"/>
      <point x="1776" y="648"/>
    </contour>
    <contour>
      <point x="404" y="1400" type="line"/>
      <point x="806" y="1400" type="line"/>
      <point x="806" y="0" type="line"/>
      <point x="404" y="0" type="line"/>
    </contour>
    <contour>
      <point x="80" y="1380" type="curve"/>
      <point x="80" y="1400" type="line"/>
      <point x="404" y="1400" type="line"/>
      <point x="404" y="1225" type="line"/>
      <point x="404" y="1280"/>
      <point x="376" y="1296"/>
      <point x="276" y="1335" type="curve" smooth="yes"/>
      <point x="211" y="1361"/>
      <point x="161" y="1371"/>
    </contour>
    <contour>
      <point x="80" y="20" type="line"/>
      <point x="161" y="29"/>
      <point x="211" y="39"/>
      <point x="276" y="65" type="curve" smooth="yes"/>
      <point x="376" y="104"/>
      <point x="404" y="120"/>
      <point x="404" y="175" type="curve"/>
      <point x="404" y="0" type="line"/>
      <point x="80" y="0" type="line"/>
    </contour>
    <contour>
      <point x="1130" y="20" type="curve"/>
      <point x="1130" y="0" type="line"/>
      <point x="806" y="0" type="line"/>
      <point x="806" y="175" type="line"/>
      <point x="806" y="120"/>
      <point x="834" y="104"/>
      <point x="934" y="65" type="curve" smooth="yes"/>
      <point x="999" y="39"/>
      <point x="1049" y="29"/>
    </contour>
    <contour>
      <point x="1128" y="668" type="curve"/>
      <point x="1178" y="668" type="line"/>
      <point x="1346.45" y="596.01"/>
      <point x="1541.5" y="575"/>
      <point x="1727" y="575" type="curve"/>
      <point x="1982" y="160" type="line" smooth="yes"/>
      <point x="2004.94" y="122.662"/>
      <point x="2042.52" y="101.54"/>
      <point x="2079.71" y="79" type="curve" smooth="yes"/>
      <point x="2122.63" y="52.9785"/>
      <point x="2187.98" y="20"/>
      <point x="2242" y="20" type="curve" smooth="yes"/>
      <point x="2300" y="20" type="line"/>
      <point x="2300" y="0" type="line"/>
      <point x="2090" y="0" type="line"/>
      <point x="1620" y="0" type="line"/>
      <point x="1564.92" y="22.7061"/>
      <point x="1521.1" y="67.8672"/>
      <point x="1457.44" y="173.085" type="curve" smooth="yes"/>
      <point x="1259.64" y="500" type="line" smooth="yes"/>
      <point x="1219.39" y="566.536"/>
      <point x="1173.51" y="632.752"/>
    </contour>
  </outline>
</glyph>
<glyph name="S" format="2">
  <advance width="1908"/>
  <unicode hex="0053"/>
  <anchor x="971" y="0" name="cedilla"/>
  <anchor x="971" y="0" name="bottom"/>
  <anchor x="984" y="1400" name="top"/>
  <outline>
    <contour>
      <point x="1678" y="1440" type="curve"/>
      <point x="1698" y="1440" type="line"/>
      <point x="1698" y="988" type="line"/>
      <point x="1678" y="988" type="line"/>
      <point x="1498" y="1206"/>
      <point x="1127" y="1390"/>
      <point x="829" y="1390" type="curve" smooth="yes"/>
      <point x="537" y="1390"/>
      <point x="390" y="1298"/>
      <point x="390" y="1190" type="curve" smooth="yes"/>
      <point x="390" y="1038"/>
      <point x="618.667" y="962.034"/>
      <point x="1076" y="920" type="curve" smooth="yes"/>
      <point x="1620" y="870"/>
      <point x="1848" y="712"/>
      <point x="1848" y="430" type="curve" smooth="yes"/>
      <point x="1848" y="120"/>
      <point x="1537" y="-28"/>
      <point x="1175" y="-28" type="curve" smooth="yes"/>
      <point x="940" y="-28"/>
      <point x="724.917" y="43.8447"/>
      <point x="534" y="137" type="curve" smooth="yes"/>
      <point x="518.722" y="144.455"/>
      <point x="495" y="155"/>
      <point x="466" y="155" type="curve" smooth="yes"/>
      <point x="381" y="155"/>
      <point x="281" y="77"/>
      <point x="198" y="0" type="curve"/>
      <point x="180" y="0" type="line"/>
      <point x="180" y="490" type="line"/>
      <point x="200" y="490" type="line"/>
      <point x="390" y="192"/>
      <point x="787" y="2"/>
      <point x="1175" y="2" type="curve" smooth="yes"/>
      <point x="1397" y="2"/>
      <point x="1630" y="62"/>
      <point x="1630" y="250" type="curve" smooth="yes"/>
      <point x="1630" y="424"/>
      <point x="1410" y="515"/>
      <point x="970" y="555" type="curve" smooth="yes"/>
      <point x="427.458" y="604.322"/>
      <point x="140" y="691"/>
      <point x="140" y="1010" type="curve" smooth="yes"/>
      <point x="140" y="1290"/>
      <point x="437" y="1420"/>
      <point x="829" y="1420" type="curve" smooth="yes"/>
      <point x="1002" y="1420"/>
      <point x="1196" y="1359"/>
      <point x="1330" y="1295" type="curve" smooth="yes"/>
      <point x="1354" y="1283"/>
      <point x="1388" y="1276"/>
      <point x="1411" y="1276" type="curve" smooth="yes"/>
      <point x="1517" y="1276"/>
      <point x="1605" y="1378"/>
    </contour>
  </outline>
</glyph>
<glyph name="T" format="2">
  <advance width="1870"/>
  <unicode hex="0054"/>
  <anchor x="935" y="0" name="cedilla"/>
  <anchor x="935" y="0" name="bottom"/>
  <anchor x="944" y="1400" name="top"/>
  <outline>
    <contour>
      <point x="720" y="1400" type="line"/>
      <point x="720" y="1370" type="line"/>
      <point x="590" y="1370" type="line" smooth="yes"/>
      <point x="451.459" y="1370"/>
      <point x="357.758" y="1230.34"/>
      <point x="274" y="1129.5" type="curve" smooth="yes"/>
      <point x="186.801" y="1024.5"/>
      <point x="107.334" y="904.623"/>
      <point x="48" y="820" type="curve"/>
      <point x="28" y="820" type="line"/>
      <point x="28" y="1400" type="line"/>
    </contour>
    <contour>
      <point x="1474" y="20" type="curve"/>
      <point x="1474" y="0" type="line"/>
      <point x="1150" y="0" type="line"/>
      <point x="1150" y="175" type="line"/>
      <point x="1150" y="120"/>
      <point x="1177.29" y="104.355"/>
      <point x="1277.71" y="65" type="curve" smooth="yes"/>
      <point x="1342.97" y="39.4219"/>
      <point x="1392.98" y="29"/>
    </contour>
    <contour>
      <point x="396" y="20" type="line"/>
      <point x="477.024" y="29"/>
      <point x="527.026" y="39.4219"/>
      <point x="592.292" y="65" type="curve" smooth="yes"/>
      <point x="692.712" y="104.355"/>
      <point x="720" y="120"/>
      <point x="720" y="175" type="curve"/>
      <point x="720" y="0" type="line"/>
      <point x="396" y="0" type="line"/>
    </contour>
    <contour>
      <point x="1150" y="1400" type="line"/>
      <point x="1842" y="1400" type="line"/>
      <point x="1842" y="820" type="line"/>
      <point x="1822" y="820" type="line"/>
      <point x="1762.67" y="904.623"/>
      <point x="1683.2" y="1024.5"/>
      <point x="1596" y="1129.5" type="curve" smooth="yes"/>
      <point x="1512.24" y="1230.34"/>
      <point x="1418.54" y="1370"/>
      <point x="1280" y="1370" type="curve" smooth="yes"/>
      <point x="1150" y="1370" type="line"/>
    </contour>
    <contour>
      <point x="720" y="1400" type="line"/>
      <point x="1150" y="1400" type="line"/>
      <point x="1150" y="0" type="line"/>
      <point x="720" y="0" type="line"/>
    </contour>
  </outline>
</glyph>
<glyph name="U" format="2">
  <advance width="2214"/>
  <unicode hex="0055"/>
  <anchor x="1196" y="0" name="cedilla"/>
  <anchor x="1196" y="0" name="bottom"/>
  <anchor x="1234" y="1400" name="top"/>
  <outline>
    <contour>
      <point x="1603" y="1377" type="curve" smooth="yes"/>
      <point x="1544" y="1380" type="line"/>
      <point x="1544" y="1400" type="line"/>
      <point x="1824" y="1400" type="line"/>
      <point x="1824" y="1065" type="line"/>
      <point x="1824" y="1085.2"/>
      <point x="1819.79" y="1098.75"/>
      <point x="1813.04" y="1114" type="curve" smooth="yes"/>
      <point x="1793.36" y="1158.55"/>
      <point x="1738.7" y="1245.75"/>
      <point x="1716.29" y="1278" type="curve" smooth="yes"/>
      <point x="1678.86" y="1331.88"/>
      <point x="1649.75" y="1374.62"/>
    </contour>
    <contour>
      <point x="1130" y="1380" type="line"/>
      <point x="1049" y="1371"/>
      <point x="999" y="1361"/>
      <point x="934" y="1335" type="curve" smooth="yes"/>
      <point x="834.341" y="1295.14"/>
      <point x="806" y="1280"/>
      <point x="806" y="1225" type="curve"/>
      <point x="806" y="1400" type="line"/>
      <point x="1130" y="1400" type="line"/>
    </contour>
    <contour>
      <point x="80" y="1380" type="curve"/>
      <point x="80" y="1400" type="line"/>
      <point x="404" y="1400" type="line"/>
      <point x="404" y="1225" type="line"/>
      <point x="404" y="1280"/>
      <point x="376.712" y="1295.64"/>
      <point x="276.292" y="1335" type="curve" smooth="yes"/>
      <point x="211.026" y="1360.58"/>
      <point x="161.024" y="1371"/>
    </contour>
    <contour>
      <point x="2075" y="1377" type="line" smooth="yes"/>
      <point x="2028.25" y="1374.62"/>
      <point x="1999.14" y="1331.88"/>
      <point x="1961.71" y="1278" type="curve" smooth="yes"/>
      <point x="1939.3" y="1245.75"/>
      <point x="1884.64" y="1158.55"/>
      <point x="1864.96" y="1114" type="curve" smooth="yes"/>
      <point x="1858.21" y="1098.75"/>
      <point x="1854" y="1085.2"/>
      <point x="1854" y="1065" type="curve"/>
      <point x="1854" y="1400" type="line"/>
      <point x="2134" y="1400" type="line"/>
      <point x="2134" y="1380" type="line"/>
    </contour>
    <contour>
      <point x="1824" y="1400" type="line"/>
      <point x="1854" y="1400" type="line"/>
      <point x="1854" y="510" type="line" smooth="yes"/>
      <point x="1854" y="180"/>
      <point x="1605" y="-28"/>
      <point x="1169" y="-28" type="curve" smooth="yes"/>
      <point x="663" y="-28"/>
      <point x="404" y="164"/>
      <point x="404" y="510" type="curve" smooth="yes"/>
      <point x="404" y="1400" type="line"/>
      <point x="806" y="1400" type="line"/>
      <point x="806" y="480" type="line" smooth="yes"/>
      <point x="806" y="216"/>
      <point x="991" y="17"/>
      <point x="1289" y="17" type="curve" smooth="yes"/>
      <point x="1557" y="17"/>
      <point x="1824" y="186"/>
      <point x="1824" y="510" type="curve" smooth="yes"/>
    </contour>
  </outline>
</glyph>
<glyph name="V" format="2">
  <advance width="2290"/>
  <unicode hex="0056"/>
  <anchor x="1231" y="0" name="bottom"/>
  <anchor x="1234" y="1400" name="top"/>
  <outline>
    <contour>
      <point x="2240" y="1380" type="line"/>
      <point x="2200" y="1380" type="line" smooth="yes"/>
      <point x="2144.27" y="1380"/>
      <point x="2081.99" y="1290.09"/>
      <point x="2006.95" y="1204" type="curve" smooth="yes"/>
      <point x="1933.04" y="1119.2"/>
      <point x="1867.63" y="1028.85"/>
      <point x="1847" y="996" type="curve" smooth="yes"/>
      <point x="1846.98" y="996.207" type="line"/>
      <point x="1230" y="-30" type="line"/>
      <point x="1230" y="20" type="line"/>
      <point x="1819.83" y="1003.18" type="line" smooth="yes"/>
      <point x="1856.4" y="1064.14"/>
      <point x="1817.11" y="1139.29"/>
      <point x="1767.29" y="1212" type="curve" smooth="yes"/>
      <point x="1711.85" y="1292.93"/>
      <point x="1674.46" y="1343.23"/>
      <point x="1639.26" y="1366" type="curve" smooth="yes"/>
      <point x="1629.21" y="1372.5"/>
      <point x="1613" y="1380"/>
      <point x="1584" y="1380" type="curve" smooth="yes"/>
      <point x="1540" y="1380" type="line"/>
      <point x="1540" y="1400" type="line"/>
      <point x="2240" y="1400" type="line"/>
    </contour>
    <contour>
      <point x="1450" y="369" type="line"/>
      <point x="1230" y="-30" type="line"/>
      <point x="368" y="1240" type="line" smooth="yes"/>
      <point x="339" y="1284"/>
      <point x="318.236" y="1299.77"/>
      <point x="280.292" y="1321" type="curve" smooth="yes"/>
      <point x="237.365" y="1345.02"/>
      <point x="172.024" y="1380"/>
      <point x="108" y="1380" type="curve" smooth="yes"/>
      <point x="50" y="1380" type="line"/>
      <point x="50" y="1400" type="line"/>
      <point x="260" y="1400" type="line"/>
      <point x="710" y="1400" type="line"/>
      <point x="834.667" y="1400"/>
      <point x="959.333" y="1400"/>
      <point x="1084" y="1400" type="curve"/>
      <point x="1084" y="1380" type="line"/>
      <point x="1060" y="1380" type="line" smooth="yes"/>
      <point x="995.976" y="1380"/>
      <point x="930.365" y="1345.5"/>
      <point x="887.708" y="1321" type="curve" smooth="yes"/>
      <point x="832.683" y="1289.4"/>
      <point x="820.894" y="1257.99"/>
      <point x="842.563" y="1226.92" type="curve" smooth="yes"/>
    </contour>
  </outline>
</glyph>
<glyph name="W" format="2">
  <advance width="3160"/>
  <unicode hex="0057"/>
  <anchor x="1646" y="0" name="bottom"/>
  <anchor x="1704" y="1400" name="top"/>
  <outline>
    <contour>
      <point x="1816" y="1400" type="line"/>
      <point x="1816" y="1350" type="line"/>
      <point x="1140" y="-30" type="line"/>
      <point x="1140" y="20" type="line"/>
    </contour>
    <contour>
      <point x="1336" y="384" type="line"/>
      <point x="1140" y="-30" type="line"/>
      <point x="368" y="1240" type="line" smooth="yes"/>
      <point x="339" y="1284"/>
      <point x="318.236" y="1299.77"/>
      <point x="280.292" y="1321" type="curve" smooth="yes"/>
      <point x="237.365" y="1345.02"/>
      <point x="172.024" y="1380"/>
      <point x="108" y="1380" type="curve" smooth="yes"/>
      <point x="50" y="1380" type="line"/>
      <point x="50" y="1400" type="line"/>
      <point x="260" y="1400" type="line"/>
      <point x="710" y="1400" type="line"/>
      <point x="834.667" y="1400"/>
      <point x="959.333" y="1400"/>
      <point x="1084" y="1400" type="curve"/>
      <point x="1084" y="1380" type="line"/>
      <point x="1060" y="1380" type="line" smooth="yes"/>
      <point x="995.976" y="1380"/>
      <point x="930.365" y="1345.5"/>
      <point x="887.708" y="1321" type="curve" smooth="yes"/>
      <point x="832.683" y="1289.4"/>
      <point x="820.894" y="1257.99"/>
      <point x="842.563" y="1226.92" type="curve" smooth="yes"/>
    </contour>
    <contour>
      <point x="3080" y="1380" type="line"/>
      <point x="3040" y="1380" type="line" smooth="yes"/>
      <point x="2984.27" y="1380"/>
      <point x="2921.99" y="1290.09"/>
      <point x="2846.95" y="1204" type="curve" smooth="yes"/>
      <point x="2773.04" y="1119.2"/>
      <point x="2707.63" y="1028.85"/>
      <point x="2687" y="996" type="curve" smooth="yes"/>
      <point x="2686.98" y="996.207" type="line"/>
      <point x="2170" y="-30" type="line"/>
      <point x="2170" y="20" type="line"/>
      <point x="2659.83" y="1003.18" type="line" smooth="yes"/>
      <point x="2696.4" y="1064.14"/>
      <point x="2657.11" y="1139.29"/>
      <point x="2607.29" y="1212" type="curve" smooth="yes"/>
      <point x="2551.85" y="1292.93"/>
      <point x="2514.46" y="1343.23"/>
      <point x="2479.26" y="1366" type="curve" smooth="yes"/>
      <point x="2469.21" y="1372.5"/>
      <point x="2453" y="1380"/>
      <point x="2424" y="1380" type="curve" smooth="yes"/>
      <point x="2380" y="1380" type="line"/>
      <point x="2380" y="1400" type="line"/>
      <point x="3080" y="1400" type="line"/>
    </contour>
    <contour>
      <point x="1816" y="1400" type="line"/>
      <point x="2370" y="390" type="line"/>
      <point x="2170" y="-30" type="line"/>
      <point x="1601" y="930" type="line"/>
    </contour>
  </outline>
</glyph>
<glyph name="X" format="2">
  <advance width="2350"/>
  <unicode hex="0058"/>
  <anchor x="1086" y="0" name="bottom"/>
  <anchor x="1184" y="1400" name="top"/>
  <outline>
    <contour>
      <point x="1102" y="631" type="line"/>
      <point x="704.563" y="283.085" type="line" smooth="yes"/>
      <point x="686.349" y="266.8"/>
      <point x="737.437" y="181.198"/>
      <point x="782.708" y="134" type="curve" smooth="yes"/>
      <point x="841.812" y="72.3809"/>
      <point x="921.976" y="24"/>
      <point x="986" y="20" type="curve"/>
      <point x="986" y="0" type="line"/>
      <point x="482" y="0" type="line"/>
      <point x="432" y="0" type="line"/>
      <point x="212" y="0" type="line"/>
      <point x="212" y="20" type="line"/>
      <point x="248.024" y="24"/>
      <point x="374.222" y="78.8457"/>
      <point x="462.292" y="135" type="curve" smooth="yes"/>
      <point x="538.008" y="183.277"/>
      <point x="630.134" y="252.319"/>
      <point x="681" y="300" type="curve" smooth="yes"/>
      <point x="1102" y="669" type="line"/>
    </contour>
    <contour>
      <point x="1084" y="769" type="line"/>
      <point x="1551.44" y="1186.92" type="line" smooth="yes"/>
      <point x="1569.65" y="1203.2"/>
      <point x="1538.56" y="1258.8"/>
      <point x="1493.29" y="1306" type="curve" smooth="yes"/>
      <point x="1434.19" y="1367.62"/>
      <point x="1404.02" y="1376"/>
      <point x="1340" y="1380" type="curve"/>
      <point x="1340" y="1400" type="line"/>
      <point x="1704" y="1400" type="line"/>
      <point x="1754" y="1400" type="line"/>
      <point x="1974" y="1400" type="line"/>
      <point x="1974" y="1380" type="line"/>
      <point x="1937.98" y="1376"/>
      <point x="1863.83" y="1337.5"/>
      <point x="1783.71" y="1295" type="curve" smooth="yes"/>
      <point x="1716.41" y="1259.3"/>
      <point x="1625.87" y="1217.68"/>
      <point x="1575" y="1170" type="curve" smooth="yes"/>
      <point x="1084" y="731" type="line"/>
    </contour>
    <contour>
      <point x="1942" y="160" type="line" smooth="yes"/>
      <point x="1977.19" y="122.77"/>
      <point x="2030.3" y="92.3789"/>
      <point x="2089.71" y="64" type="curve" smooth="yes"/>
      <point x="2162.71" y="29.1299"/>
      <point x="2195.98" y="25"/>
      <point x="2270" y="20" type="curve"/>
      <point x="2270" y="0" type="line"/>
      <point x="2060" y="0" type="line"/>
      <point x="1550" y="0" type="line"/>
      <point x="1186" y="0" type="line"/>
      <point x="1186" y="20" type="line"/>
      <point x="1270.02" y="22"/>
      <point x="1332.03" y="50.7422"/>
      <point x="1372.29" y="79" type="curve" smooth="yes"/>
      <point x="1417.32" y="110.6"/>
      <point x="1442.57" y="146.491"/>
      <point x="1417.44" y="173.085" type="curve" smooth="yes"/>
      <point x="408" y="1241" type="line" smooth="yes"/>
      <point x="372.809" y="1278.23"/>
      <point x="319.704" y="1308.62"/>
      <point x="260.292" y="1337" type="curve" smooth="yes"/>
      <point x="187.289" y="1371.87"/>
      <point x="154.024" y="1376"/>
      <point x="80" y="1381" type="curve"/>
      <point x="80" y="1401" type="line"/>
      <point x="290" y="1401" type="line"/>
      <point x="800" y="1401" type="line"/>
      <point x="1164" y="1401" type="line"/>
      <point x="1164" y="1381" type="line"/>
      <point x="1079.98" y="1379"/>
      <point x="1017.97" y="1350.26"/>
      <point x="977.708" y="1322" type="curve" smooth="yes"/>
      <point x="932.683" y="1290.4"/>
      <point x="907.426" y="1254.51"/>
      <point x="932.563" y="1227.92" type="curve" smooth="yes"/>
    </contour>
  </outline>
</glyph>
<glyph name="Y" format="2">
  <advance width="2394"/>
  <unicode hex="0059"/>
  <anchor x="1286" y="0" name="bottom"/>
  <anchor x="1344" y="1400" name="top"/>
  <outline>
    <contour>
      <point x="1835" y="20" type="curve"/>
      <point x="1835" y="0" type="line"/>
      <point x="1511" y="0" type="line"/>
      <point x="1511" y="175" type="line"/>
      <point x="1511" y="120"/>
      <point x="1539" y="104"/>
      <point x="1639" y="65" type="curve" smooth="yes"/>
      <point x="1704" y="39"/>
      <point x="1754" y="29"/>
    </contour>
    <contour>
      <point x="757" y="20" type="line"/>
      <point x="838" y="29"/>
      <point x="888" y="39"/>
      <point x="953" y="65" type="curve" smooth="yes"/>
      <point x="1053" y="104"/>
      <point x="1081" y="120"/>
      <point x="1081" y="175" type="curve"/>
      <point x="1081" y="0" type="line"/>
      <point x="757" y="0" type="line"/>
    </contour>
    <contour>
      <point x="1081" y="490" type="line"/>
      <point x="1511" y="610" type="line"/>
      <point x="1511" y="0" type="line"/>
      <point x="1081" y="0" type="line"/>
    </contour>
    <contour>
      <point x="1490" y="628" type="line"/>
      <point x="1966" y="1187" type="line" smooth="yes"/>
      <point x="1982" y="1206"/>
      <point x="1923" y="1259"/>
      <point x="1878" y="1306" type="curve" smooth="yes"/>
      <point x="1819" y="1368"/>
      <point x="1739" y="1376"/>
      <point x="1675" y="1380" type="curve"/>
      <point x="1675" y="1400" type="line"/>
      <point x="2139" y="1400" type="line"/>
      <point x="2189" y="1400" type="line"/>
      <point x="2399" y="1400" type="line"/>
      <point x="2399" y="1380" type="line"/>
      <point x="2363" y="1376"/>
      <point x="2279" y="1337"/>
      <point x="2199" y="1295" type="curve" smooth="yes"/>
      <point x="2132" y="1259"/>
      <point x="2035" y="1223"/>
      <point x="1990" y="1170" type="curve" smooth="yes"/>
      <point x="1511" y="610" type="line"/>
    </contour>
    <contour>
      <point x="1511" y="610" type="line"/>
      <point x="1081" y="490" type="line"/>
      <point x="378" y="1240" type="line" smooth="yes"/>
      <point x="343" y="1277"/>
      <point x="289" y="1308"/>
      <point x="230" y="1336" type="curve" smooth="yes"/>
      <point x="157" y="1371"/>
      <point x="124" y="1375"/>
      <point x="50" y="1380" type="curve"/>
      <point x="50" y="1400" type="line"/>
      <point x="260" y="1400" type="line"/>
      <point x="770" y="1400" type="line"/>
      <point x="1134" y="1400" type="line"/>
      <point x="1134" y="1380" type="line"/>
      <point x="1050" y="1378"/>
      <point x="988" y="1349"/>
      <point x="948" y="1321" type="curve" smooth="yes"/>
      <point x="903" y="1289"/>
      <point x="877" y="1253"/>
      <point x="903" y="1227" type="curve" smooth="yes"/>
    </contour>
  </outline>
</glyph>
<glyph name="Z" format="2">
  <advance width="1962"/>
  <unicode hex="005A"/>
  <anchor x="956" y="0" name="bottom"/>
  <anchor x="954" y="1400" name="top"/>
  <outline>
    <contour>
      <point x="1806" y="1370" type="line"/>
      <point x="672" y="30" type="line"/>
      <point x="120" y="30" type="line"/>
      <point x="1254" y="1370" type="line"/>
    </contour>
    <contour>
      <point x="178" y="870" type="curve"/>
      <point x="158" y="870" type="line"/>
      <point x="158" y="1400" type="line"/>
      <point x="1806" y="1400" type="line"/>
      <point x="1806" y="1370" type="line"/>
      <point x="790" y="1370" type="line" smooth="yes"/>
      <point x="604.133" y="1370"/>
      <point x="530.659" y="1274.5"/>
      <point x="418" y="1153.72" type="curve" smooth="yes"/>
      <point x="327.456" y="1056.64"/>
      <point x="226.571" y="940.954"/>
    </contour>
    <contour>
      <point x="120" y="0" type="line"/>
      <point x="120" y="30" type="line"/>
      <point x="1250" y="30" type="line" smooth="yes"/>
      <point x="1388.54" y="30"/>
      <point x="1492.24" y="169.656"/>
      <point x="1576" y="270.504" type="curve" smooth="yes"/>
      <point x="1663.2" y="375.496"/>
      <point x="1732.67" y="495.377"/>
      <point x="1792" y="580" type="curve"/>
      <point x="1812" y="580" type="line"/>
      <point x="1812" y="0" type="line"/>
    </contour>
  </outline>
</glyph>
<glyph name="asciicircum" format="2">
  <advance width="1140"/>
  <unicode hex="005E"/>
  <outline>
    <contour>
      <point x="570" y="1242" type="line"/>
      <point x="120" y="920" type="line"/>
      <point x="90" y="920" type="line"/>
      <point x="460" y="1420" type="line"/>
      <point x="680" y="1420" type="line"/>
      <point x="1050" y="920" type="line"/>
      <point x="1020" y="920" type="line"/>
    </contour>
  </outline>
</glyph>
<glyph name="grave" format="2">
  <advance width="823"/>
  <unicode hex="0060"/>
  <outline>
    <contour>
      <point x="292" y="1360" type="line" smooth="yes"/>
      <point x="193.184" y="1340.28"/>
      <point x="100" y="1422"/>
      <point x="100" y="1520" type="curve" smooth="yes"/>
      <point x="100" y="1618"/>
      <point x="212.084" y="1699.76"/>
      <point x="312" y="1656" type="curve" smooth="yes"/>
      <point x="723" y="1476" type="line"/>
      <point x="723" y="1446" type="line"/>
    </contour>
  </outline>
</glyph>
<glyph name="braceleft" format="2">
  <advance width="776"/>
  <unicode hex="007B"/>
  <outline>
    <contour>
      <point x="716" y="1560" type="curve"/>
      <point x="716" y="1530" type="line"/>
      <point x="592" y="1530"/>
      <point x="500" y="1440"/>
      <point x="500" y="1314" type="curve" smooth="yes"/>
      <point x="500" y="1202"/>
      <point x="568" y="1107"/>
      <point x="568" y="947" type="curve" smooth="yes"/>
      <point x="568" y="781"/>
      <point x="488" y="690"/>
      <point x="100" y="650" type="curve"/>
      <point x="100" y="665" type="line"/>
      <point x="160" y="685"/>
      <point x="222" y="735"/>
      <point x="222" y="817" type="curve" smooth="yes"/>
      <point x="222" y="943"/>
      <point x="100" y="1008"/>
      <point x="100" y="1242" type="curve" smooth="yes"/>
      <point x="100" y="1460"/>
      <point x="244" y="1560"/>
    </contour>
    <contour>
      <point x="716" y="-250" type="line"/>
      <point x="244" y="-250"/>
      <point x="100" y="-148"/>
      <point x="100" y="70" type="curve" smooth="yes"/>
      <point x="100" y="304"/>
      <point x="222" y="371"/>
      <point x="222" y="497" type="curve" smooth="yes"/>
      <point x="222" y="579"/>
      <point x="160" y="625"/>
      <point x="100" y="645" type="curve"/>
      <point x="100" y="660" type="line"/>
      <point x="488" y="620"/>
      <point x="568" y="531"/>
      <point x="568" y="365" type="curve" smooth="yes"/>
      <point x="568" y="205"/>
      <point x="500" y="110"/>
      <point x="500" y="-2" type="curve" smooth="yes"/>
      <point x="500" y="-128"/>
      <point x="592" y="-220"/>
      <point x="716" y="-220" type="curve"/>
    </contour>
  </outline>
</glyph>
<glyph name="bar" format="2">
  <advance width="608"/>
  <unicode hex="007C"/>
  <outline>
    <contour>
      <point x="200" y="1560" type="line"/>
      <point x="408" y="1560" type="line"/>
      <point x="408" y="-440" type="line"/>
      <point x="200" y="-440" type="line"/>
    </contour>
  </outline>
</glyph>
<glyph name="cent" format="2">
  <advance width="2152"/>
  <unicode hex="00A2"/>
  <outline>
    <contour>
      <point x="1082" y="1500" type="line"/>
      <point x="1112" y="1500" type="line"/>
      <point x="1112" y="-190" type="line"/>
      <point x="1082" y="-190" type="line"/>
    </contour>
    <contour>
      <point x="1151" y="1395" type="curve"/>
      <point x="1140" y="1425" type="line"/>
      <point x="1499" y="1425"/>
      <point x="1773" y="1263"/>
      <point x="1773" y="1059" type="curve" smooth="yes"/>
      <point x="1773" y="895"/>
      <point x="1650" y="809"/>
      <point x="1520" y="809" type="curve" smooth="yes"/>
      <point x="1390" y="809"/>
      <point x="1275" y="887"/>
      <point x="1275" y="1027" type="curve" smooth="yes"/>
      <point x="1275" y="1157"/>
      <point x="1383" y="1229"/>
      <point x="1502" y="1229" type="curve" smooth="yes"/>
      <point x="1559.97" y="1229"/>
      <point x="1587.37" y="1214.49"/>
      <point x="1613" y="1214.49" type="curve" smooth="yes"/>
      <point x="1620" y="1214.49"/>
      <point x="1623" y="1220"/>
      <point x="1623" y="1229" type="curve" smooth="yes"/>
      <point x="1623" y="1297.46"/>
      <point x="1397.98" y="1395"/>
    </contour>
    <contour>
      <point x="1151" y="1395" type="line"/>
      <point x="883" y="1395"/>
      <point x="630" y="1134"/>
      <point x="630" y="700" type="curve" smooth="yes"/>
      <point x="630" y="266"/>
      <point x="843" y="21"/>
      <point x="1180" y="21" type="curve" smooth="yes"/>
      <point x="1474" y="21"/>
      <point x="1686" y="269"/>
      <point x="1742" y="412" type="curve"/>
      <point x="1772" y="412" type="line"/>
      <point x="1712" y="246"/>
      <point x="1486" y="-20"/>
      <point x="1120" y="-20" type="curve" smooth="yes"/>
      <point x="584" y="-20"/>
      <point x="160" y="256"/>
      <point x="160" y="700" type="curve" smooth="yes"/>
      <point x="160" y="1144"/>
      <point x="624" y="1425"/>
      <point x="1140" y="1425" type="curve"/>
    </contour>
  </outline>
</glyph>
<glyph name="sterling" format="2">
  <advance width="1848"/>
  <unicode hex="00A3"/>
  <outline>
    <contour>
      <point x="50" y="705" type="line"/>
      <point x="50" y="735" type="line"/>
      <point x="1080" y="735" type="line"/>
      <point x="1080" y="705" type="line"/>
    </contour>
    <contour>
      <point x="186" y="1001" type="curve"/>
      <point x="636" y="1090" type="line"/>
      <point x="636" y="922"/>
      <point x="740" y="871"/>
      <point x="740" y="721" type="curve" smooth="yes"/>
      <point x="740" y="402"/>
      <point x="155" y="441"/>
      <point x="190" y="0" type="curve"/>
      <point x="170" y="0" type="line"/>
      <point x="132" y="277"/>
      <point x="328" y="353"/>
      <point x="328" y="541" type="curve" smooth="yes"/>
      <point x="328" y="770"/>
      <point x="186" y="771"/>
    </contour>
    <contour>
      <point x="636" y="1090" type="curve"/>
      <point x="186" y="1001" type="line"/>
      <point x="186" y="1261"/>
      <point x="552" y="1420"/>
      <point x="1014" y="1420" type="curve" smooth="yes"/>
      <point x="1373" y="1420"/>
      <point x="1647" y="1258"/>
      <point x="1647" y="1054" type="curve" smooth="yes"/>
      <point x="1647" y="890"/>
      <point x="1524" y="804"/>
      <point x="1394" y="804" type="curve" smooth="yes"/>
      <point x="1264" y="804"/>
      <point x="1149" y="882"/>
      <point x="1149" y="1022" type="curve" smooth="yes"/>
      <point x="1149" y="1152"/>
      <point x="1257" y="1224"/>
      <point x="1376" y="1224" type="curve" smooth="yes"/>
      <point x="1433.97" y="1224"/>
      <point x="1461.37" y="1209.49"/>
      <point x="1487" y="1209.49" type="curve" smooth="yes"/>
      <point x="1494" y="1209.49"/>
      <point x="1497" y="1215"/>
      <point x="1497" y="1224" type="curve" smooth="yes"/>
      <point x="1497" y="1292.46"/>
      <point x="1270.98" y="1387"/>
      <point x="1024" y="1387" type="curve" smooth="yes"/>
      <point x="792" y="1387"/>
      <point x="636" y="1303"/>
    </contour>
    <contour>
      <point x="180" y="0" type="line"/>
      <point x="180" y="234.628"/>
      <point x="448.868" y="424"/>
      <point x="798" y="424" type="curve" smooth="yes"/>
      <point x="1114.89" y="424"/>
      <point x="1230.24" y="240"/>
      <point x="1491" y="240" type="curve" smooth="yes"/>
      <point x="1629" y="240"/>
      <point x="1678" y="312"/>
      <point x="1688" y="456" type="curve"/>
      <point x="1708" y="456" type="line"/>
      <point x="1708" y="158.214"/>
      <point x="1590.84" y="-50"/>
      <point x="1221" y="-50" type="curve" smooth="yes"/>
      <point x="758.452" y="-50"/>
      <point x="736.582" y="224"/>
      <point x="448" y="224" type="curve" smooth="yes"/>
      <point x="356" y="224"/>
      <point x="210" y="180"/>
      <point x="200" y="0" type="curve"/>
    </contour>
  </outline>
</glyph>
<glyph name="yen" format="2">
  <advance width="2394"/>
  <unicode hex="00A5"/>
  <outline>
    <contour>
      <point x="1511" y="380" type="line"/>
      <point x="1511" y="410" type="line"/>
      <point x="2221" y="410" type="line"/>
      <point x="2221" y="380" type="line"/>
    </contour>
    <contour>
      <point x="1511" y="580" type="line"/>
      <point x="1511" y="610" type="line"/>
      <point x="2221" y="610" type="line"/>
      <point x="2221" y="580" type="line"/>
    </contour>
    <contour>
      <point x="221" y="380" type="line"/>
      <point x="221" y="410" type="line"/>
      <point x="1081" y="410" type="line"/>
      <point x="1081" y="380" type="line"/>
    </contour>
    <contour>
      <point x="221" y="580" type="line"/>
      <point x="221" y="610" type="line"/>
      <point x="1081" y="610" type="line"/>
      <point x="1081" y="580" type="line"/>
    </contour>
    <contour>
      <point x="1835" y="20" type="curve"/>
      <point x="1835" y="0" type="line"/>
      <point x="1511" y="0" type="line"/>
      <point x="1511" y="175" type="line"/>
      <point x="1511" y="120"/>
      <point x="1539" y="104"/>
      <point x="1639" y="65" type="curve" smooth="yes"/>
      <point x="1704" y="39"/>
      <point x="1754" y="29"/>
    </contour>
    <contour>
      <point x="757" y="20" type="line"/>
      <point x="838" y="29"/>
      <point x="888" y="39"/>
      <point x="953" y="65" type="curve" smooth="yes"/>
      <point x="1053" y="104"/>
      <point x="1081" y="120"/>
      <point x="1081" y="175" type="curve"/>
      <point x="1081" y="0" type="line"/>
      <point x="757" y="0" type="line"/>
    </contour>
    <contour>
      <point x="1081" y="490" type="line"/>
      <point x="1511" y="610" type="line"/>
      <point x="1511" y="0" type="line"/>
      <point x="1081" y="0" type="line"/>
    </contour>
    <contour>
      <point x="1490" y="628" type="line"/>
      <point x="1966" y="1187" type="line" smooth="yes"/>
      <point x="1982" y="1206"/>
      <point x="1923" y="1259"/>
      <point x="1878" y="1306" type="curve" smooth="yes"/>
      <point x="1819" y="1368"/>
      <point x="1739" y="1376"/>
      <point x="1675" y="1380" type="curve"/>
      <point x="1675" y="1400" type="line"/>
      <point x="2139" y="1400" type="line"/>
      <point x="2189" y="1400" type="line"/>
      <point x="2399" y="1400" type="line"/>
      <point x="2399" y="1380" type="line"/>
      <point x="2363" y="1376"/>
      <point x="2279" y="1337"/>
      <point x="2199" y="1295" type="curve" smooth="yes"/>
      <point x="2132" y="1259"/>
      <point x="2035" y="1223"/>
      <point x="1990" y="1170" type="curve" smooth="yes"/>
      <point x="1511" y="610" type="line"/>
    </contour>
    <contour>
      <point x="1511" y="610" type="line"/>
      <point x="1081" y="490" type="line"/>
      <point x="378" y="1241" type="line" smooth="yes"/>
      <point x="343" y="1278"/>
      <point x="289" y="1309"/>
      <point x="230" y="1337" type="curve" smooth="yes"/>
      <point x="157" y="1372"/>
      <point x="124" y="1376"/>
      <point x="50" y="1381" type="curve"/>
      <point x="50" y="1401" type="line"/>
      <point x="260" y="1401" type="line"/>
      <point x="770" y="1401" type="line"/>
      <point x="1134" y="1401" type="line"/>
      <point x="1134" y="1381" type="line"/>
      <point x="1050" y="1379"/>
      <point x="988" y="1350"/>
      <point x="948" y="1322" type="curve" smooth="yes"/>
      <point x="903" y="1290"/>
      <point x="877" y="1254"/>
      <point x="903" y="1228" type="curve" smooth="yes"/>
    </contour>
  </outline>
</glyph>
<glyph name="brokenbar" format="2">
  <advance width="608"/>
  <unicode hex="00A6"/>
  <outline>
    <contour>
      <point x="200" y="1560" type="line"/>
      <point x="408" y="1560" type="line"/>
      <point x="408" y="760" type="line"/>
      <point x="200" y="760" type="line"/>
    </contour>
    <contour>
      <point x="200" y="360" type="line"/>
      <point x="408" y="360" type="line"/>
      <point x="408" y="-440" type="line"/>
      <point x="200" y="-440" type="line"/>
    </contour>
  </outline>
</glyph>
<glyph name="guillemotleft" format="2">
  <advance width="1507"/>
  <unicode hex="00AB"/>
  <outline>
    <contour>
      <point x="1102" y="776" type="line"/>
      <point x="1405" y="305" type="line"/>
      <point x="1392" y="290" type="line"/>
      <point x="608" y="765" type="line"/>
      <point x="608" y="785" type="line"/>
      <point x="1392" y="1260" type="line"/>
      <point x="1407" y="1245" type="line"/>
    </contour>
    <contour>
      <point x="502" y="776" type="line"/>
      <point x="845" y="305" type="line"/>
      <point x="830" y="290" type="line"/>
      <point x="50" y="765" type="line"/>
      <point x="50" y="785" type="line"/>
      <point x="830" y="1260" type="line"/>
      <point x="845" y="1245" type="line"/>
    </contour>
  </outline>
</glyph>
<glyph name="macron" format="2">
  <advance width="738"/>
  <unicode hex="00AF"/>
  <outline>
    <contour>
      <point x="40" y="770" type="line"/>
      <point x="40" y="970" type="line"/>
      <point x="698" y="970" type="line"/>
      <point x="698" y="770" type="line"/>
    </contour>
  </outline>
</glyph>
<glyph name="acute" format="2">
  <advance width="823"/>
  <unicode hex="00B4"/>
  <outline>
    <contour>
      <point x="531" y="1360" type="curve" smooth="yes"/>
      <point x="100" y="1446" type="line"/>
      <point x="100" y="1476" type="line"/>
      <point x="511" y="1656" type="line" smooth="yes"/>
      <point x="611" y="1700"/>
      <point x="723" y="1618"/>
      <point x="723" y="1520" type="curve" smooth="yes"/>
      <point x="723" y="1422"/>
      <point x="630" y="1340"/>
    </contour>
  </outline>
</glyph>
<glyph name="paragraph" format="2">
  <advance width="1852"/>
  <unicode hex="00B6"/>
  <outline>
    <contour>
      <point x="1542" y="1390" type="line"/>
      <point x="1572" y="1390" type="line"/>
      <point x="1572" y="0" type="line"/>
      <point x="1542" y="0" type="line"/>
    </contour>
    <contour>
      <point x="1322" y="1390" type="line"/>
      <point x="1352" y="1390" type="line"/>
      <point x="1352" y="0" type="line"/>
      <point x="1322" y="0" type="line"/>
    </contour>
    <contour>
      <point x="720" y="0" type="line" smooth="yes"/>
      <point x="308" y="0"/>
      <point x="80" y="340"/>
      <point x="80" y="700" type="curve" smooth="yes"/>
      <point x="80" y="1060"/>
      <point x="308" y="1400"/>
      <point x="720" y="1400" type="curve" smooth="yes"/>
      <point x="1772" y="1400" type="line"/>
      <point x="1772" y="1370" type="line"/>
      <point x="1200" y="1370" type="line" smooth="yes"/>
      <point x="998" y="1370"/>
      <point x="900" y="1108"/>
      <point x="900" y="700" type="curve" smooth="yes"/>
      <point x="900" y="292"/>
      <point x="998" y="30"/>
      <point x="1200" y="30" type="curve" smooth="yes"/>
      <point x="1772" y="30" type="line"/>
      <point x="1772" y="0" type="line"/>
    </contour>
  </outline>
</glyph>
<glyph name="cedilla" format="2">
  <advance width="1098"/>
  <unicode hex="00B8"/>
  <anchor x="543" y="0" name="_cedilla"/>
  <outline>
    <contour>
      <point x="515" y="-350" type="curve" smooth="yes"/>
      <point x="515" y="-246"/>
      <point x="423" y="-228"/>
      <point x="353" y="-228" type="curve"/>
      <point x="533" y="12" type="line"/>
      <point x="565" y="12" type="line"/>
      <point x="443" y="-148" type="line"/>
      <point x="647" y="-154"/>
      <point x="817" y="-198"/>
      <point x="817" y="-310" type="curve" smooth="yes"/>
      <point x="817" y="-410"/>
      <point x="719" y="-461"/>
      <point x="359" y="-461" type="curve"/>
      <point x="359" y="-438" type="line"/>
      <point x="477" y="-438"/>
      <point x="515" y="-418"/>
    </contour>
  </outline>
</glyph>
<glyph name="AE" format="2">
  <advance width="2934"/>
  <unicode hex="00C6"/>
  <outline>
    <contour>
      <point x="990" y="1380" type="curve"/>
      <point x="990" y="1400" type="line"/>
      <point x="1314" y="1400" type="line"/>
      <point x="1314" y="1225" type="line"/>
      <point x="1314" y="1280"/>
      <point x="1286.71" y="1295.64"/>
      <point x="1186.29" y="1335" type="curve" smooth="yes"/>
      <point x="1121.03" y="1360.58"/>
      <point x="1071.02" y="1371"/>
    </contour>
    <contour>
      <point x="530" y="465" type="line"/>
      <point x="1328" y="465" type="line"/>
      <point x="1328" y="435" type="line"/>
      <point x="520" y="435" type="line"/>
    </contour>
    <contour>
      <point x="50" y="20" type="line"/>
      <point x="90" y="20" type="line" smooth="yes"/>
      <point x="145.734" y="20"/>
      <point x="207.866" y="110.033"/>
      <point x="283.047" y="196" type="curve" smooth="yes"/>
      <point x="354.012" y="277.146"/>
      <point x="398.772" y="323.619"/>
      <point x="473.021" y="403.793" type="curve" smooth="yes"/>
      <point x="1303" y="1300" type="line"/>
      <point x="1341" y="1300" type="line"/>
      <point x="505.167" y="396.816" type="line" smooth="yes"/>
      <point x="460.202" y="342.849"/>
      <point x="472.894" y="260.712"/>
      <point x="522.708" y="188" type="curve" smooth="yes"/>
      <point x="578.15" y="107.073"/>
      <point x="615.544" y="56.7666"/>
      <point x="650.742" y="34" type="curve" smooth="yes"/>
      <point x="660.793" y="27.499"/>
      <point x="677" y="20"/>
      <point x="706" y="20" type="curve" smooth="yes"/>
      <point x="750" y="20" type="line"/>
      <point x="750" y="0" type="line"/>
      <point x="50" y="0" type="line"/>
    </contour>
    <contour>
      <point x="990" y="20" type="line"/>
      <point x="1071.02" y="29"/>
      <point x="1121.03" y="39.4219"/>
      <point x="1186.29" y="65" type="curve" smooth="yes"/>
      <point x="1286.71" y="104.355"/>
      <point x="1314" y="120"/>
      <point x="1314" y="175" type="curve"/>
      <point x="1314" y="0" type="line"/>
      <point x="990" y="0" type="line"/>
    </contour>
    <contour>
      <point x="2320" y="446" type="line"/>
      <point x="2279.9" y="513.232"/>
      <point x="2228.21" y="564.71"/>
      <point x="2180" y="614.265" type="curve" smooth="yes"/>
      <point x="2132.12" y="663.477"/>
      <point x="2107.81" y="711"/>
      <point x="2022" y="711" type="curve" smooth="yes"/>
      <point x="1662" y="711" type="line"/>
      <point x="1662" y="741" type="line"/>
      <point x="2022" y="741" type="line" smooth="yes"/>
      <point x="2094.92" y="741"/>
      <point x="2135.96" y="819.194"/>
      <point x="2188" y="876.43" type="curve" smooth="yes"/>
      <point x="2228.59" y="921.067"/>
      <point x="2293.71" y="1007.29"/>
      <point x="2320" y="1066" type="curve"/>
      <point x="2340" y="1066" type="line"/>
      <point x="2340" y="446" type="line"/>
    </contour>
    <contour>
      <point x="1716" y="1400" type="line"/>
      <point x="2814" y="1400" type="line"/>
      <point x="2814" y="920" type="line"/>
      <point x="2794" y="920" type="line"/>
      <point x="2734.67" y="1004.62"/>
      <point x="2660.2" y="1097.5"/>
      <point x="2568" y="1189.5" type="curve" smooth="yes"/>
      <point x="2475.2" y="1282.09"/>
      <point x="2405.84" y="1370"/>
      <point x="2262" y="1370" type="curve" smooth="yes"/>
      <point x="1716" y="1370" type="line"/>
    </contour>
    <contour>
      <point x="1314" y="1400" type="line"/>
      <point x="1716" y="1400" type="line"/>
      <point x="1716" y="0" type="line"/>
      <point x="1314" y="0" type="line"/>
    </contour>
    <contour>
      <point x="2794" y="530" type="curve"/>
      <point x="2814" y="530" type="line"/>
      <point x="2814" y="0" type="line"/>
      <point x="1716" y="0" type="line"/>
      <point x="1716" y="30" type="line"/>
      <point x="2242" y="30" type="line" smooth="yes"/>
      <point x="2427.87" y="30"/>
      <point x="2507.34" y="147.495"/>
      <point x="2613" y="268.281" type="curve" smooth="yes"/>
      <point x="2700.4" y="368.195"/>
      <point x="2765.43" y="459.046"/>
    </contour>
  </outline>
</glyph>
<glyph name="Eth" format="2">
  <advance width="2244"/>
  <unicode hex="00D0"/>
  <outline>
    <contour>
      <point x="156" y="734" type="line"/>
      <point x="156" y="764" type="line"/>
      <point x="1096" y="764" type="line"/>
      <point x="1096" y="734" type="line"/>
    </contour>
    <component base="D"/>
  </outline>
</glyph>
<glyph name="Thorn" format="2">
  <advance width="2134"/>
  <unicode hex="00DE"/>
  <outline>
    <contour>
      <point x="1130" y="1380" type="line"/>
      <point x="1049" y="1371"/>
      <point x="999" y="1361"/>
      <point x="934" y="1335" type="curve" smooth="yes"/>
      <point x="834" y="1296"/>
      <point x="806" y="1280"/>
      <point x="806" y="1225" type="curve"/>
      <point x="806" y="1400" type="line"/>
      <point x="1130" y="1400" type="line"/>
    </contour>
    <contour>
      <point x="1130" y="20" type="curve"/>
      <point x="1130" y="0" type="line"/>
      <point x="806" y="0" type="line"/>
      <point x="806" y="175" type="line"/>
      <point x="806" y="120"/>
      <point x="834" y="104"/>
      <point x="934" y="65" type="curve" smooth="yes"/>
      <point x="999" y="39"/>
      <point x="1049" y="29"/>
    </contour>
    <contour>
      <point x="80" y="20" type="line"/>
      <point x="161" y="29"/>
      <point x="211" y="39"/>
      <point x="276" y="65" type="curve" smooth="yes"/>
      <point x="376" y="104"/>
      <point x="404" y="120"/>
      <point x="404" y="175" type="curve"/>
      <point x="404" y="0" type="line"/>
      <point x="80" y="0" type="line"/>
    </contour>
    <contour>
      <point x="80" y="1380" type="curve"/>
      <point x="80" y="1400" type="line"/>
      <point x="404" y="1400" type="line"/>
      <point x="404" y="1225" type="line"/>
      <point x="404" y="1280"/>
      <point x="376" y="1296"/>
      <point x="276" y="1335" type="curve" smooth="yes"/>
      <point x="211" y="1361"/>
      <point x="161" y="1371"/>
    </contour>
    <contour>
      <point x="404" y="1400" type="line"/>
      <point x="806" y="1400" type="line"/>
      <point x="806" y="0" type="line"/>
      <point x="404" y="0" type="line"/>
    </contour>
    <contour>
      <point x="1414" y="328" type="curve" smooth="yes"/>
      <point x="694" y="328" type="line"/>
      <point x="694" y="358" type="line"/>
      <point x="1354" y="358" type="line" smooth="yes"/>
      <point x="1506" y="358"/>
      <point x="1614" y="486"/>
      <point x="1614" y="714" type="curve" smooth="yes"/>
      <point x="1614" y="942"/>
      <point x="1506" y="1070"/>
      <point x="1354" y="1070" type="curve" smooth="yes"/>
      <point x="702" y="1070" type="line"/>
      <point x="702" y="1100" type="line"/>
      <point x="1414" y="1100" type="line" smooth="yes"/>
      <point x="1776" y="1100"/>
      <point x="2054" y="974"/>
      <point x="2054" y="714" type="curve" smooth="yes"/>
      <point x="2054" y="454"/>
      <point x="1776" y="328"/>
    </contour>
  </outline>
</glyph>
<glyph name="divide" format="2">
  <advance width="1262"/>
  <unicode hex="00F7"/>
  <outline>
    <contour>
      <point x="439" y="240" type="curve" smooth="yes"/>
      <point x="439" y="346"/>
      <point x="525" y="432"/>
      <point x="631" y="432" type="curve" smooth="yes"/>
      <point x="737" y="432"/>
      <point x="823" y="346"/>
      <point x="823" y="240" type="curve" smooth="yes"/>
      <point x="823" y="134"/>
      <point x="737" y="48"/>
      <point x="631" y="48" type="curve" smooth="yes"/>
      <point x="525" y="48"/>
      <point x="439" y="134"/>
    </contour>
    <contour>
      <point x="439" y="1120" type="curve" smooth="yes"/>
      <point x="439" y="1226"/>
      <point x="525" y="1312"/>
      <point x="631" y="1312" type="curve" smooth="yes"/>
      <point x="737" y="1312"/>
      <point x="823" y="1226"/>
      <point x="823" y="1120" type="curve" smooth="yes"/>
      <point x="823" y="1014"/>
      <point x="737" y="928"/>
      <point x="631" y="928" type="curve" smooth="yes"/>
      <point x="525" y="928"/>
      <point x="439" y="1014"/>
    </contour>
    <contour>
      <point x="40" y="580" type="line"/>
      <point x="40" y="780" type="line"/>
      <point x="1222" y="780" type="line"/>
      <point x="1222" y="580" type="line"/>
    </contour>
  </outline>
</glyph>
<glyph name="Hbar" format="2">
  <advance width="2415"/>
  <unicode hex="0126"/>
  <outline>
    <contour>
      <point x="104" y="1024" type="line"/>
      <point x="104" y="1054" type="line"/>
      <point x="2311" y="1054" type="line"/>
      <point x="2311" y="1024" type="line"/>
    </contour>
    <component base="H"/>
  </outline>
</glyph>
<glyph name="Eng" format="2">
  <advance width="2888"/>
  <unicode hex="014A"/>
  <outline>
    <contour>
      <point x="2073" y="710" type="line"/>
      <point x="2073" y="1144"/>
      <point x="1732" y="1390"/>
      <point x="1395" y="1390" type="curve" smooth="yes"/>
      <point x="1091" y="1390"/>
      <point x="806" y="1191"/>
      <point x="806" y="828" type="curve"/>
      <point x="776" y="828" type="line"/>
      <point x="780" y="1214"/>
      <point x="1079" y="1430"/>
      <point x="1465" y="1430" type="curve" smooth="yes"/>
      <point x="2001" y="1430"/>
      <point x="2475" y="1154"/>
      <point x="2475" y="710" type="curve"/>
    </contour>
    <contour>
      <point x="2073" y="710" type="line"/>
      <point x="2475" y="710" type="line"/>
      <point x="2475" y="359" type="line" smooth="yes"/>
      <point x="2475" y="340.868"/>
      <point x="2468.61" y="325.465"/>
      <point x="2462.28" y="316" type="curve" smooth="yes"/>
      <point x="2298.64" y="71.4932"/>
      <point x="2027.14" y="-61"/>
      <point x="1752" y="-61" type="curve" smooth="yes"/>
      <point x="1498" y="-61"/>
      <point x="1210" y="130"/>
      <point x="1210" y="330" type="curve" smooth="yes"/>
      <point x="1210" y="474"/>
      <point x="1323" y="575"/>
      <point x="1454" y="575" type="curve" smooth="yes"/>
      <point x="1574" y="575"/>
      <point x="1697" y="485"/>
      <point x="1697" y="343" type="curve" smooth="yes"/>
      <point x="1697" y="227"/>
      <point x="1623" y="168"/>
      <point x="1494" y="168" type="curve" smooth="yes"/>
      <point x="1449" y="168"/>
      <point x="1420" y="157"/>
      <point x="1420" y="133" type="curve" smooth="yes"/>
      <point x="1420" y="120"/>
      <point x="1426.76" y="104.742"/>
      <point x="1452" y="78" type="curve" smooth="yes"/>
      <point x="1519" y="7"/>
      <point x="1618" y="-31"/>
      <point x="1747" y="-31" type="curve" smooth="yes"/>
      <point x="1920" y="-31"/>
      <point x="2073" y="101"/>
      <point x="2073" y="380" type="curve" smooth="yes"/>
    </contour>
    <contour>
      <point x="1130" y="20" type="curve"/>
      <point x="1130" y="0" type="line"/>
      <point x="806" y="0" type="line"/>
      <point x="806" y="175" type="line"/>
      <point x="806" y="120"/>
      <point x="833.288" y="104.355"/>
      <point x="933.708" y="65" type="curve" smooth="yes"/>
      <point x="998.974" y="39.4219"/>
      <point x="1048.98" y="29"/>
    </contour>
    <contour>
      <point x="80" y="20" type="line"/>
      <point x="161.024" y="29"/>
      <point x="211.026" y="39.4219"/>
      <point x="276.292" y="65" type="curve" smooth="yes"/>
      <point x="376.712" y="104.355"/>
      <point x="404" y="120"/>
      <point x="404" y="175" type="curve"/>
      <point x="404" y="0" type="line"/>
      <point x="80" y="0" type="line"/>
    </contour>
    <contour>
      <point x="80" y="1380" type="curve"/>
      <point x="80" y="1400" type="line"/>
      <point x="404" y="1400" type="line"/>
      <point x="404" y="1225" type="line"/>
      <point x="404" y="1280"/>
      <point x="376.712" y="1295.64"/>
      <point x="276.292" y="1335" type="curve" smooth="yes"/>
      <point x="211.026" y="1360.58"/>
      <point x="161.024" y="1371"/>
    </contour>
    <contour>
      <point x="404" y="1400" type="line"/>
      <point x="806" y="1400" type="line"/>
      <point x="806" y="0" type="line"/>
      <point x="404" y="0" type="line"/>
    </contour>
  </outline>
</glyph>
<glyph name="Tbar" format="2">
  <advance width="1870"/>
  <unicode hex="0166"/>
  <outline>
    <contour>
      <point x="492" y="734" type="line"/>
      <point x="492" y="764" type="line"/>
      <point x="1392" y="764" type="line"/>
      <point x="1392" y="734" type="line"/>
    </contour>
    <component base="T"/>
  </outline>
</glyph>
<glyph name="circumflex" format="2">
  <advance width="928"/>
  <unicode hex="02C6"/>
  <anchor x="464" y="1400" name="_top"/>
  <outline>
    <contour>
      <point x="464" y="1705" type="line"/>
      <point x="64" y="1554" type="line"/>
      <point x="50" y="1575" type="line"/>
      <point x="360" y="1895" type="line"/>
      <point x="570" y="1895" type="line"/>
      <point x="880" y="1575" type="line"/>
      <point x="870" y="1565" type="line"/>
    </contour>
  </outline>
</glyph>
<glyph name="ring" format="2">
  <advance width="638"/>
  <unicode hex="02DA"/>
  <anchor x="320" y="1400" name="_top"/>
  <outline>
    <contour>
      <point x="140" y="1700" type="curve" smooth="yes"/>
      <point x="140" y="1802"/>
      <point x="218" y="1880"/>
      <point x="320" y="1880" type="curve" smooth="yes"/>
      <point x="422" y="1880"/>
      <point x="500" y="1802"/>
      <point x="500" y="1700" type="curve" smooth="yes"/>
      <point x="500" y="1598"/>
      <point x="422" y="1520"/>
      <point x="320" y="1520" type="curve" smooth="yes"/>
      <point x="218" y="1520"/>
      <point x="140" y="1598"/>
    </contour>
    <contour>
      <point x="220" y="1700" type="curve" smooth="yes"/>
      <point x="220" y="1632"/>
      <point x="264" y="1594"/>
      <point x="320" y="1594" type="curve" smooth="yes"/>
      <point x="376" y="1594"/>
      <point x="422" y="1632"/>
      <point x="422" y="1700" type="curve" smooth="yes"/>
      <point x="422" y="1768"/>
      <point x="376" y="1808"/>
      <point x="320" y="1808" type="curve" smooth="yes"/>
      <point x="264" y="1808"/>
      <point x="220" y="1768"/>
    </contour>
  </outline>
</glyph>
<glyph name="tilde" format="2">
  <advance width="1016"/>
  <unicode hex="02DC"/>
  <anchor x="456" y="1400" name="_top"/>
  <outline>
    <contour>
      <point x="230" y="1752" type="curve" smooth="yes"/>
      <point x="134" y="1752"/>
      <point x="50" y="1688"/>
      <point x="50" y="1604" type="curve"/>
      <point x="20" y="1604" type="line"/>
      <point x="20" y="1834"/>
      <point x="120" y="1978"/>
      <point x="318" y="1978" type="curve" smooth="yes"/>
      <point x="538" y="1978"/>
      <point x="566" y="1790"/>
      <point x="758" y="1790" type="curve" smooth="yes"/>
      <point x="874" y="1790"/>
      <point x="966" y="1854"/>
      <point x="966" y="1938" type="curve"/>
      <point x="996" y="1938" type="line"/>
      <point x="996" y="1708"/>
      <point x="896" y="1564"/>
      <point x="698" y="1564" type="curve" smooth="yes"/>
      <point x="444" y="1564"/>
      <point x="436" y="1752"/>
    </contour>
  </outline>
</glyph>
<glyph name="hungarumlaut" format="2">
  <unicode hex="02DD"/>
  <anchor x="-542" y="1402" name="_top"/>
  <outline>
    <contour>
      <point x="-636" y="1618" type="curve" smooth="yes"/>
      <point x="-908" y="1560" type="line"/>
      <point x="-918" y="1570" type="line"/>
      <point x="-791" y="1856" type="line" smooth="yes"/>
      <point x="-723.467" y="2008.08"/>
      <point x="-540" y="1979"/>
      <point x="-486" y="1901" type="curve" smooth="yes"/>
      <point x="-420" y="1805"/>
      <point x="-478" y="1652"/>
    </contour>
    <contour>
      <point x="-126" y="1618" type="curve" smooth="yes"/>
      <point x="-398" y="1560" type="line"/>
      <point x="-408" y="1570" type="line"/>
      <point x="-281" y="1856" type="line" smooth="yes"/>
      <point x="-213.656" y="2007.66"/>
      <point x="-30" y="1979"/>
      <point x="24" y="1901" type="curve" smooth="yes"/>
      <point x="90" y="1805"/>
      <point x="32" y="1652"/>
    </contour>
  </outline>
</glyph>
<glyph name="dotaccentcmb" format="2">
  <unicode hex="0307"/>
  <outline>
    <contour>
      <point x="-594" y="1158" type="curve" smooth="yes"/>
      <point x="-594" y="1290"/>
      <point x="-486" y="1398"/>
      <point x="-354" y="1398" type="curve" smooth="yes"/>
      <point x="-222" y="1398"/>
      <point x="-114" y="1290"/>
      <point x="-114" y="1158" type="curve" smooth="yes"/>
      <point x="-114" y="1026"/>
      <point x="-222" y="918"/>
      <point x="-354" y="918" type="curve" smooth="yes"/>
      <point x="-486" y="918"/>
      <point x="-594" y="1026"/>
    </contour>
  </outline>
</glyph>
<glyph name="Eszett" format="2">
  <advance width="2858"/>
  <unicode hex="1E9E"/>
  <outline>
    <contour>
      <point x="80" y="20" type="line"/>
      <point x="161" y="29"/>
      <point x="211" y="39"/>
      <point x="276" y="65" type="curve" smooth="yes"/>
      <point x="375.659" y="104.863"/>
      <point x="404" y="120"/>
      <point x="404" y="175" type="curve"/>
      <point x="404" y="0" type="line"/>
      <point x="80" y="0" type="line"/>
    </contour>
    <contour>
      <point x="1130" y="20" type="curve"/>
      <point x="1130" y="0" type="line"/>
      <point x="806" y="0" type="line"/>
      <point x="806" y="175" type="line"/>
      <point x="806" y="120"/>
      <point x="833.288" y="104.355"/>
      <point x="933.708" y="65" type="curve" smooth="yes"/>
      <point x="998.974" y="39.4219"/>
      <point x="1048.98" y="29"/>
    </contour>
    <contour>
      <point x="2698" y="360" type="curve" smooth="yes"/>
      <point x="2698" y="70"/>
      <point x="2190" y="-20"/>
      <point x="1888" y="-20" type="curve" smooth="yes"/>
      <point x="1534" y="-20"/>
      <point x="1206" y="103"/>
      <point x="1206" y="338" type="curve" smooth="yes"/>
      <point x="1206" y="470"/>
      <point x="1306" y="556"/>
      <point x="1456" y="556" type="curve" smooth="yes"/>
      <point x="1567" y="556"/>
      <point x="1703" y="477"/>
      <point x="1703" y="345" type="curve" smooth="yes"/>
      <point x="1703" y="211"/>
      <point x="1589" y="150"/>
      <point x="1490" y="150" type="curve" smooth="yes"/>
      <point x="1422.32" y="150"/>
      <point x="1412.02" y="172.742"/>
      <point x="1394" y="172.742" type="curve" smooth="yes"/>
      <point x="1390" y="172.742"/>
      <point x="1387" y="171.481"/>
      <point x="1387" y="167" type="curve" smooth="yes"/>
      <point x="1387" y="117"/>
      <point x="1565.63" y="18"/>
      <point x="1808" y="18" type="curve" smooth="yes"/>
      <point x="2046" y="18"/>
      <point x="2266" y="142"/>
      <point x="2266" y="360" type="curve" smooth="yes"/>
      <point x="2266" y="588"/>
      <point x="2200" y="734"/>
      <point x="1732" y="734" type="curve"/>
      <point x="1732" y="754" type="line"/>
      <point x="2314" y="754"/>
      <point x="2698" y="611"/>
    </contour>
    <contour>
      <point x="2144" y="706" type="line"/>
      <point x="2062" y="738"/>
      <point x="1902" y="726"/>
      <point x="1732" y="754" type="curve"/>
      <point x="2185" y="1305" type="line"/>
      <point x="2099" y="1343"/>
      <point x="1830" y="1391"/>
      <point x="1582" y="1391" type="curve" smooth="yes"/>
      <point x="1154" y="1391"/>
      <point x="806" y="1324"/>
      <point x="806" y="920" type="curve" smooth="yes"/>
      <point x="806" y="0" type="line"/>
      <point x="404" y="0" type="line"/>
      <point x="404" y="892" type="line" smooth="yes"/>
      <point x="404" y="1336"/>
      <point x="1036" y="1421"/>
      <point x="1582" y="1421" type="curve" smooth="yes"/>
      <point x="1950" y="1421"/>
      <point x="2368" y="1312"/>
      <point x="2548" y="1196" type="curve"/>
    </contour>
  </outline>
</glyph>
<glyph name="hyphennobreak" format="2">
  <advance width="640"/>
  <unicode hex="2011"/>
  <outline>
    <contour>
      <point x="40" y="450" type="line"/>
      <point x="40" y="650" type="line"/>
      <point x="600" y="650" type="line"/>
      <point x="600" y="450" type="line"/>
    </contour>
  </outline>
</glyph>
<glyph name="endash" format="2">
  <advance width="1062"/>
  <unicode hex="2013"/>
  <outline>
    <contour>
      <point x="40" y="470" type="line"/>
      <point x="40" y="670" type="line"/>
      <point x="1022" y="670" type="line"/>
      <point x="1022" y="470" type="line"/>
    </contour>
  </outline>
</glyph>
<glyph name="emdash" format="2">
  <advance width="1630"/>
  <unicode hex="2014"/>
  <outline>
    <contour>
      <point x="40" y="470" type="line"/>
      <point x="40" y="670" type="line"/>
      <point x="1590" y="670" type="line"/>
      <point x="1590" y="470" type="line"/>
    </contour>
  </outline>
</glyph>
<glyph name="horizontalbar" format="2">
  <advance width="1802"/>
  <unicode hex="2015"/>
  <outline>
    <contour>
      <point x="40" y="700" type="line"/>
      <point x="72" y="700" type="line"/>
      <point x="72" y="440" type="line"/>
      <point x="40" y="440" type="line"/>
    </contour>
    <contour>
      <point x="1732" y="700" type="line"/>
      <point x="1762" y="700" type="line"/>
      <point x="1762" y="440" type="line"/>
      <point x="1732" y="440" type="line"/>
    </contour>
    <contour>
      <point x="40" y="470" type="line"/>
      <point x="40" y="670" type="line"/>
      <point x="1762" y="670" type="line"/>
      <point x="1762" y="470" type="line"/>
    </contour>
  </outline>
</glyph>
<glyph name="dagger" format="2">
  <advance width="1888"/>
  <unicode hex="2020"/>
  <outline>
    <contour>
      <point x="929" y="-500" type="line"/>
      <point x="929" y="100"/>
      <point x="768" y="350"/>
      <point x="668" y="500" type="curve"/>
      <point x="1220" y="500" type="line"/>
      <point x="1120" y="350"/>
      <point x="959" y="100"/>
      <point x="959" y="-500" type="curve"/>
    </contour>
    <contour>
      <point x="668" y="500" type="line"/>
      <point x="768" y="600"/>
      <point x="929" y="707"/>
      <point x="929" y="877" type="curve"/>
      <point x="959" y="877" type="line"/>
      <point x="959" y="707"/>
      <point x="1120" y="600"/>
      <point x="1220" y="500" type="curve"/>
    </contour>
    <contour>
      <point x="1450" y="651" type="curve" smooth="yes"/>
      <point x="1330" y="666"/>
      <point x="1084" y="854"/>
      <point x="944" y="854" type="curve"/>
      <point x="944" y="884" type="line"/>
      <point x="1084" y="884"/>
      <point x="1330" y="1072"/>
      <point x="1450" y="1087" type="curve" smooth="yes"/>
      <point x="1464.03" y="1088.75"/>
      <point x="1474" y="1089"/>
      <point x="1486" y="1089" type="curve" smooth="yes"/>
      <point x="1604" y="1089"/>
      <point x="1688" y="987"/>
      <point x="1688" y="869" type="curve" smooth="yes"/>
      <point x="1688" y="751"/>
      <point x="1604" y="649"/>
      <point x="1486" y="649" type="curve" smooth="yes"/>
      <point x="1474" y="649"/>
      <point x="1464.03" y="649.246"/>
    </contour>
    <contour>
      <point x="1162" y="1282" type="curve" smooth="yes"/>
      <point x="1147" y="1162"/>
      <point x="959" y="1016"/>
      <point x="959" y="876" type="curve"/>
      <point x="929" y="876" type="line"/>
      <point x="929" y="1016"/>
      <point x="741" y="1162"/>
      <point x="726" y="1282" type="curve" smooth="yes"/>
      <point x="724.246" y="1296.03"/>
      <point x="724" y="1306"/>
      <point x="724" y="1318" type="curve" smooth="yes"/>
      <point x="724" y="1436"/>
      <point x="826" y="1520"/>
      <point x="944" y="1520" type="curve" smooth="yes"/>
      <point x="1062" y="1520"/>
      <point x="1164" y="1436"/>
      <point x="1164" y="1318" type="curve" smooth="yes"/>
      <point x="1164" y="1306"/>
      <point x="1163.75" y="1296.03"/>
    </contour>
    <contour>
      <point x="438" y="1087" type="curve" smooth="yes"/>
      <point x="558" y="1072"/>
      <point x="804" y="884"/>
      <point x="944" y="884" type="curve"/>
      <point x="944" y="854" type="line"/>
      <point x="804" y="854"/>
      <point x="558" y="666"/>
      <point x="438" y="651" type="curve" smooth="yes"/>
      <point x="423.967" y="649.246"/>
      <point x="414" y="649"/>
      <point x="402" y="649" type="curve" smooth="yes"/>
      <point x="284" y="649"/>
      <point x="200" y="751"/>
      <point x="200" y="869" type="curve" smooth="yes"/>
      <point x="200" y="987"/>
      <point x="284" y="1089"/>
      <point x="402" y="1089" type="curve" smooth="yes"/>
      <point x="414" y="1089"/>
      <point x="423.967" y="1088.75"/>
    </contour>
  </outline>
</glyph>
<glyph name="daggerdbl" format="2">
  <advance width="1888"/>
  <unicode hex="2021"/>
  <outline>
    <contour>
      <point x="1220" y="500" type="line"/>
      <point x="1120" y="400"/>
      <point x="959" y="293"/>
      <point x="959" y="123" type="curve"/>
      <point x="929" y="123" type="line"/>
      <point x="929" y="293"/>
      <point x="768" y="400"/>
      <point x="668" y="500" type="curve"/>
    </contour>
    <contour>
      <point x="438" y="349" type="curve" smooth="yes"/>
      <point x="558" y="334"/>
      <point x="804" y="146"/>
      <point x="944" y="146" type="curve"/>
      <point x="944" y="116" type="line"/>
      <point x="804" y="116"/>
      <point x="558" y="-72"/>
      <point x="438" y="-87" type="curve" smooth="yes"/>
      <point x="423.967" y="-88.7539"/>
      <point x="414" y="-89"/>
      <point x="402" y="-89" type="curve" smooth="yes"/>
      <point x="284" y="-89"/>
      <point x="200" y="13"/>
      <point x="200" y="131" type="curve" smooth="yes"/>
      <point x="200" y="249"/>
      <point x="284" y="351"/>
      <point x="402" y="351" type="curve" smooth="yes"/>
      <point x="414" y="351"/>
      <point x="423.967" y="350.754"/>
    </contour>
    <contour>
      <point x="726" y="-282" type="curve" smooth="yes"/>
      <point x="741" y="-162"/>
      <point x="929" y="-16"/>
      <point x="929" y="124" type="curve"/>
      <point x="959" y="124" type="line"/>
      <point x="959" y="-16"/>
      <point x="1147" y="-162"/>
      <point x="1162" y="-282" type="curve" smooth="yes"/>
      <point x="1163.75" y="-296.033"/>
      <point x="1164" y="-306"/>
      <point x="1164" y="-318" type="curve" smooth="yes"/>
      <point x="1164" y="-436"/>
      <point x="1062" y="-520"/>
      <point x="944" y="-520" type="curve" smooth="yes"/>
      <point x="826" y="-520"/>
      <point x="724" y="-436"/>
      <point x="724" y="-318" type="curve" smooth="yes"/>
      <point x="724" y="-306"/>
      <point x="724.246" y="-296.033"/>
    </contour>
    <contour>
      <point x="1450" y="-87" type="curve" smooth="yes"/>
      <point x="1330" y="-72"/>
      <point x="1084" y="116"/>
      <point x="944" y="116" type="curve"/>
      <point x="944" y="146" type="line"/>
      <point x="1084" y="146"/>
      <point x="1330" y="334"/>
      <point x="1450" y="349" type="curve" smooth="yes"/>
      <point x="1464.03" y="350.754"/>
      <point x="1474" y="351"/>
      <point x="1486" y="351" type="curve" smooth="yes"/>
      <point x="1604" y="351"/>
      <point x="1688" y="249"/>
      <point x="1688" y="131" type="curve" smooth="yes"/>
      <point x="1688" y="13"/>
      <point x="1604" y="-89"/>
      <point x="1486" y="-89" type="curve" smooth="yes"/>
      <point x="1474" y="-89"/>
      <point x="1464.03" y="-88.7539"/>
    </contour>
    <contour>
      <point x="668" y="500" type="line"/>
      <point x="768" y="600"/>
      <point x="929" y="707"/>
      <point x="929" y="877" type="curve"/>
      <point x="959" y="877" type="line"/>
      <point x="959" y="707"/>
      <point x="1120" y="600"/>
      <point x="1220" y="500" type="curve"/>
    </contour>
    <contour>
      <point x="1450" y="651" type="curve" smooth="yes"/>
      <point x="1330" y="666"/>
      <point x="1084" y="854"/>
      <point x="944" y="854" type="curve"/>
      <point x="944" y="884" type="line"/>
      <point x="1084" y="884"/>
      <point x="1330" y="1072"/>
      <point x="1450" y="1087" type="curve" smooth="yes"/>
      <point x="1464.03" y="1088.75"/>
      <point x="1474" y="1089"/>
      <point x="1486" y="1089" type="curve" smooth="yes"/>
      <point x="1604" y="1089"/>
      <point x="1688" y="987"/>
      <point x="1688" y="869" type="curve" smooth="yes"/>
      <point x="1688" y="751"/>
      <point x="1604" y="649"/>
      <point x="1486" y="649" type="curve" smooth="yes"/>
      <point x="1474" y="649"/>
      <point x="1464.03" y="649.246"/>
    </contour>
    <contour>
      <point x="1162" y="1282" type="curve" smooth="yes"/>
      <point x="1147" y="1162"/>
      <point x="959" y="1016"/>
      <point x="959" y="876" type="curve"/>
      <point x="929" y="876" type="line"/>
      <point x="929" y="1016"/>
      <point x="741" y="1162"/>
      <point x="726" y="1282" type="curve" smooth="yes"/>
      <point x="724.246" y="1296.03"/>
      <point x="724" y="1306"/>
      <point x="724" y="1318" type="curve" smooth="yes"/>
      <point x="724" y="1436"/>
      <point x="826" y="1520"/>
      <point x="944" y="1520" type="curve" smooth="yes"/>
      <point x="1062" y="1520"/>
      <point x="1164" y="1436"/>
      <point x="1164" y="1318" type="curve" smooth="yes"/>
      <point x="1164" y="1306"/>
      <point x="1163.75" y="1296.03"/>
    </contour>
    <contour>
      <point x="438" y="1087" type="curve" smooth="yes"/>
      <point x="558" y="1072"/>
      <point x="804" y="884"/>
      <point x="944" y="884" type="curve"/>
      <point x="944" y="854" type="line"/>
      <point x="804" y="854"/>
      <point x="558" y="666"/>
      <point x="438" y="651" type="curve" smooth="yes"/>
      <point x="423.967" y="649.246"/>
      <point x="414" y="649"/>
      <point x="402" y="649" type="curve" smooth="yes"/>
      <point x="284" y="649"/>
      <point x="200" y="751"/>
      <point x="200" y="869" type="curve" smooth="yes"/>
      <point x="200" y="987"/>
      <point x="284" y="1089"/>
      <point x="402" y="1089" type="curve" smooth="yes"/>
      <point x="414" y="1089"/>
      <point x="423.967" y="1088.75"/>
    </contour>
  </outline>
</glyph>
<glyph name="pertenthousand" format="2">
  <advance width="3862"/>
  <unicode hex="2031"/>
  <outline>
    <contour>
      <point x="2970" y="340" type="curve" smooth="yes"/>
      <point x="2970" y="528"/>
      <point x="3126" y="700"/>
      <point x="3406" y="700" type="curve" smooth="yes"/>
      <point x="3666" y="700"/>
      <point x="3842" y="528"/>
      <point x="3842" y="340" type="curve" smooth="yes"/>
      <point x="3842" y="152"/>
      <point x="3666" y="-20"/>
      <point x="3406" y="-20" type="curve" smooth="yes"/>
      <point x="3126" y="-20"/>
      <point x="2970" y="152"/>
    </contour>
    <contour>
      <point x="3302" y="340" type="curve" smooth="yes"/>
      <point x="3302" y="168"/>
      <point x="3316" y="0"/>
      <point x="3406" y="0" type="curve" smooth="yes"/>
      <point x="3496" y="0"/>
      <point x="3510" y="168"/>
      <point x="3510" y="340" type="curve" smooth="yes"/>
      <point x="3510" y="512"/>
      <point x="3496" y="680"/>
      <point x="3406" y="680" type="curve" smooth="yes"/>
      <point x="3316" y="680"/>
      <point x="3302" y="512"/>
    </contour>
    <contour>
      <point x="2000" y="340" type="curve" smooth="yes"/>
      <point x="2000" y="528"/>
      <point x="2156" y="700"/>
      <point x="2436" y="700" type="curve" smooth="yes"/>
      <point x="2696" y="700"/>
      <point x="2872" y="528"/>
      <point x="2872" y="340" type="curve" smooth="yes"/>
      <point x="2872" y="152"/>
      <point x="2696" y="-20"/>
      <point x="2436" y="-20" type="curve" smooth="yes"/>
      <point x="2156" y="-20"/>
      <point x="2000" y="152"/>
    </contour>
    <contour>
      <point x="2332" y="340" type="curve" smooth="yes"/>
      <point x="2332" y="168"/>
      <point x="2346" y="0"/>
      <point x="2436" y="0" type="curve" smooth="yes"/>
      <point x="2526" y="0"/>
      <point x="2540" y="168"/>
      <point x="2540" y="340" type="curve" smooth="yes"/>
      <point x="2540" y="512"/>
      <point x="2526" y="680"/>
      <point x="2436" y="680" type="curve" smooth="yes"/>
      <point x="2346" y="680"/>
      <point x="2332" y="512"/>
    </contour>
    <contour>
      <point x="1516" y="1400" type="line"/>
      <point x="446" y="0" type="line"/>
      <point x="406" y="0" type="line"/>
      <point x="1476" y="1400" type="line"/>
    </contour>
    <contour>
      <point x="1030" y="340" type="curve" smooth="yes"/>
      <point x="1030" y="528"/>
      <point x="1186" y="700"/>
      <point x="1466" y="700" type="curve" smooth="yes"/>
      <point x="1726" y="700"/>
      <point x="1902" y="528"/>
      <point x="1902" y="340" type="curve" smooth="yes"/>
      <point x="1902" y="152"/>
      <point x="1726" y="-20"/>
      <point x="1466" y="-20" type="curve" smooth="yes"/>
      <point x="1186" y="-20"/>
      <point x="1030" y="152"/>
    </contour>
    <contour>
      <point x="1362" y="340" type="curve" smooth="yes"/>
      <point x="1362" y="168"/>
      <point x="1376" y="0"/>
      <point x="1466" y="0" type="curve" smooth="yes"/>
      <point x="1556" y="0"/>
      <point x="1570" y="168"/>
      <point x="1570" y="340" type="curve" smooth="yes"/>
      <point x="1570" y="512"/>
      <point x="1556" y="680"/>
      <point x="1466" y="680" type="curve" smooth="yes"/>
      <point x="1376" y="680"/>
      <point x="1362" y="512"/>
    </contour>
    <contour>
      <point x="20" y="1060" type="curve" smooth="yes"/>
      <point x="20" y="1248"/>
      <point x="196" y="1420"/>
      <point x="456" y="1420" type="curve" smooth="yes"/>
      <point x="716" y="1420"/>
      <point x="892" y="1248"/>
      <point x="892" y="1060" type="curve" smooth="yes"/>
      <point x="892" y="872"/>
      <point x="716" y="700"/>
      <point x="456" y="700" type="curve" smooth="yes"/>
      <point x="196" y="700"/>
      <point x="20" y="872"/>
    </contour>
    <contour>
      <point x="352" y="1060" type="curve" smooth="yes"/>
      <point x="352" y="888"/>
      <point x="366" y="720"/>
      <point x="456" y="720" type="curve" smooth="yes"/>
      <point x="546" y="720"/>
      <point x="560" y="888"/>
      <point x="560" y="1060" type="curve" smooth="yes"/>
      <point x="560" y="1232"/>
      <point x="546" y="1400"/>
      <point x="456" y="1400" type="curve" smooth="yes"/>
      <point x="366" y="1400"/>
      <point x="352" y="1232"/>
    </contour>
  </outline>
</glyph>
<glyph name="guilsinglleft" format="2">
  <advance width="945"/>
  <unicode hex="2039"/>
  <outline>
    <contour>
      <point x="502" y="776" type="line"/>
      <point x="845" y="305" type="line"/>
      <point x="830" y="290" type="line"/>
      <point x="50" y="765" type="line"/>
      <point x="50" y="785" type="line"/>
      <point x="830" y="1260" type="line"/>
      <point x="845" y="1245" type="line"/>
    </contour>
  </outline>
</glyph>
<glyph name="Euro" format="2">
  <advance width="2152"/>
  <unicode hex="20AC"/>
  <outline>
    <contour>
      <point x="11" y="580" type="line"/>
      <point x="11" y="610" type="line"/>
      <point x="1131" y="610" type="line"/>
      <point x="1131" y="580" type="line"/>
    </contour>
    <contour>
      <point x="11" y="780" type="line"/>
      <point x="11" y="810" type="line"/>
      <point x="1131" y="810" type="line"/>
      <point x="1131" y="780" type="line"/>
    </contour>
    <contour>
      <point x="1141" y="1395" type="curve"/>
      <point x="1130" y="1425" type="line"/>
      <point x="1489" y="1425"/>
      <point x="1763" y="1263"/>
      <point x="1763" y="1059" type="curve" smooth="yes"/>
      <point x="1763" y="895"/>
      <point x="1640" y="809"/>
      <point x="1510" y="809" type="curve" smooth="yes"/>
      <point x="1380" y="809"/>
      <point x="1265" y="887"/>
      <point x="1265" y="1027" type="curve" smooth="yes"/>
      <point x="1265" y="1157"/>
      <point x="1373" y="1229"/>
      <point x="1492" y="1229" type="curve" smooth="yes"/>
      <point x="1549.97" y="1229"/>
      <point x="1577.37" y="1214.49"/>
      <point x="1603" y="1214.49" type="curve" smooth="yes"/>
      <point x="1610" y="1214.49"/>
      <point x="1613" y="1220"/>
      <point x="1613" y="1229" type="curve" smooth="yes"/>
      <point x="1613" y="1297.46"/>
      <point x="1387.98" y="1395"/>
    </contour>
    <contour>
      <point x="1141" y="1395" type="line"/>
      <point x="823" y="1395"/>
      <point x="630" y="1134"/>
      <point x="630" y="700" type="curve" smooth="yes"/>
      <point x="630" y="266"/>
      <point x="843" y="21"/>
      <point x="1180" y="21" type="curve" smooth="yes"/>
      <point x="1474" y="21"/>
      <point x="1686" y="269"/>
      <point x="1742" y="412" type="curve"/>
      <point x="1772" y="412" type="line"/>
      <point x="1712" y="246"/>
      <point x="1486" y="-20"/>
      <point x="1120" y="-20" type="curve" smooth="yes"/>
      <point x="584" y="-20"/>
      <point x="160" y="256"/>
      <point x="160" y="700" type="curve" smooth="yes"/>
      <point x="160" y="1144"/>
      <point x="564" y="1425"/>
      <point x="1130" y="1425" type="curve"/>
    </contour>
  </outline>
</glyph>
<glyph name="Cowboy" format="2">
  <advance width="1796"/>
  <unicode hex="F8FF"/>
  <outline>
    <contour>
      <point x="936" y="1570" type="curve" smooth="yes"/>
      <point x="1052" y="1570"/>
      <point x="1172" y="1456"/>
      <point x="1232" y="1392" type="curve"/>
      <point x="1258" y="1388"/>
      <point x="1282" y="1384"/>
      <point x="1302" y="1384" type="curve" smooth="yes"/>
      <point x="1382" y="1384"/>
      <point x="1408" y="1412"/>
      <point x="1438" y="1396" type="curve" smooth="yes"/>
      <point x="1468" y="1380"/>
      <point x="1538" y="1242"/>
      <point x="1526" y="1162" type="curve" smooth="yes"/>
      <point x="1514" y="1082"/>
      <point x="1462" y="870"/>
      <point x="1358" y="858" type="curve" smooth="yes"/>
      <point x="1336" y="856"/>
      <point x="1298" y="854"/>
      <point x="1250" y="850" type="curve"/>
      <point x="1256" y="864"/>
      <point x="1260" y="880"/>
      <point x="1262" y="900" type="curve" smooth="yes"/>
      <point x="1268" y="958"/>
      <point x="1266" y="1030"/>
      <point x="1254" y="1024" type="curve" smooth="yes"/>
      <point x="1242" y="1018"/>
      <point x="1256" y="1118"/>
      <point x="1228" y="1144" type="curve" smooth="yes"/>
      <point x="1200" y="1170"/>
      <point x="1132" y="1236"/>
      <point x="960" y="1240" type="curve" smooth="yes"/>
      <point x="788" y="1244"/>
      <point x="752" y="1254"/>
      <point x="720" y="1216" type="curve" smooth="yes"/>
      <point x="688" y="1178"/>
      <point x="692" y="1152"/>
      <point x="690" y="1126" type="curve" smooth="yes"/>
      <point x="688" y="1100"/>
      <point x="702" y="980"/>
      <point x="702" y="980" type="curve"/>
      <point x="702" y="980"/>
      <point x="656" y="1016"/>
      <point x="648" y="1004" type="curve" smooth="yes"/>
      <point x="640" y="992"/>
      <point x="652" y="924"/>
      <point x="664" y="880" type="curve" smooth="yes"/>
      <point x="666" y="874"/>
      <point x="670" y="864"/>
      <point x="672" y="858" type="curve"/>
      <point x="664" y="860"/>
      <point x="658" y="862"/>
      <point x="652" y="864" type="curve" smooth="yes"/>
      <point x="534" y="914"/>
      <point x="424" y="1052"/>
      <point x="412" y="1170" type="curve" smooth="yes"/>
      <point x="400" y="1288"/>
      <point x="458" y="1464"/>
      <point x="458" y="1464" type="curve"/>
      <point x="458" y="1464"/>
      <point x="484" y="1426"/>
      <point x="560" y="1426" type="curve" smooth="yes"/>
      <point x="617" y="1426"/>
      <point x="680" y="1439"/>
      <point x="716" y="1447" type="curve"/>
      <point x="750" y="1498"/>
      <point x="828" y="1570"/>
    </contour>
    <contour>
      <point x="1100" y="1102" type="curve" smooth="yes"/>
      <point x="1140" y="1102"/>
      <point x="1180" y="1048"/>
      <point x="1180" y="1048" type="curve"/>
      <point x="1180" y="1048"/>
      <point x="1124" y="1082"/>
      <point x="1090" y="1082" type="curve" smooth="yes"/>
      <point x="1056" y="1082"/>
      <point x="1024" y="1054"/>
      <point x="1024" y="1054" type="curve" smooth="yes"/>
      <point x="1024" y="1054"/>
      <point x="1058" y="1100"/>
      <point x="1098" y="1102" type="curve" smooth="yes"/>
      <point x="1100" y="1102"/>
      <point x="1098" y="1102"/>
    </contour>
    <contour>
      <point x="840" y="1086" type="curve" smooth="yes"/>
      <point x="882" y="1086"/>
      <point x="906" y="1064"/>
      <point x="906" y="1064" type="curve" smooth="yes"/>
      <point x="906" y="1064"/>
      <point x="872" y="1070"/>
      <point x="834" y="1068" type="curve" smooth="yes"/>
      <point x="796" y="1066"/>
      <point x="752" y="1018"/>
      <point x="752" y="1018" type="curve"/>
      <point x="752" y="1018"/>
      <point x="784" y="1080"/>
      <point x="830" y="1084" type="curve" smooth="yes"/>
      <point x="832" y="1084"/>
      <point x="838" y="1086"/>
    </contour>
    <contour>
      <point x="1004" y="810" type="curve" smooth="yes"/>
      <point x="1008" y="810" type="line" smooth="yes"/>
      <point x="1026" y="808"/>
      <point x="1078" y="790"/>
      <point x="1078" y="790" type="curve"/>
      <point x="1078" y="790"/>
      <point x="1000" y="784"/>
      <point x="992" y="788" type="curve" smooth="yes"/>
      <point x="984" y="792"/>
      <point x="988" y="810"/>
    </contour>
    <contour>
      <point x="944" y="804" type="curve" smooth="yes"/>
      <point x="954" y="804"/>
      <point x="960" y="802"/>
      <point x="960" y="794" type="curve" smooth="yes"/>
      <point x="958" y="772"/>
      <point x="850" y="770"/>
      <point x="850" y="770" type="curve"/>
      <point x="850" y="770"/>
      <point x="862" y="782"/>
      <point x="888" y="790" type="curve" smooth="yes"/>
      <point x="904" y="796"/>
      <point x="928" y="804"/>
    </contour>
    <contour>
      <point x="756" y="636" type="curve"/>
      <point x="794" y="574"/>
      <point x="842" y="534"/>
      <point x="942" y="538" type="curve" smooth="yes"/>
      <point x="1018" y="542"/>
      <point x="1094" y="566"/>
      <point x="1142" y="618" type="curve"/>
      <point x="1140" y="556"/>
      <point x="1136" y="498"/>
      <point x="1126" y="472" type="curve" smooth="yes"/>
      <point x="1100" y="408"/>
      <point x="942" y="372"/>
      <point x="942" y="372" type="curve"/>
      <point x="942" y="372"/>
      <point x="802" y="476"/>
      <point x="768" y="552" type="curve" smooth="yes"/>
      <point x="758" y="572"/>
      <point x="754" y="602"/>
    </contour>
    <contour>
      <point x="756" y="636" type="curve"/>
      <point x="756" y="636"/>
      <point x="716" y="466"/>
      <point x="690" y="142" type="curve" smooth="yes"/>
      <point x="686" y="96"/>
      <point x="686" y="46"/>
      <point x="684" y="0" type="curve"/>
      <point x="0" y="0" type="line"/>
      <point x="0" y="44" type="line"/>
      <point x="28" y="144"/>
      <point x="60" y="264"/>
      <point x="84" y="320" type="curve" smooth="yes"/>
      <point x="130" y="430"/>
      <point x="156" y="468"/>
      <point x="156" y="468" type="curve"/>
      <point x="156" y="468"/>
      <point x="324" y="526"/>
      <point x="458" y="526" type="curve" smooth="yes"/>
      <point x="592" y="526"/>
      <point x="630" y="522"/>
      <point x="714" y="598" type="curve" smooth="yes"/>
      <point x="740" y="620"/>
      <point x="756" y="636"/>
    </contour>
    <contour>
      <point x="942" y="372" type="line"/>
      <point x="1010" y="316" type="line"/>
      <point x="966" y="216" type="line"/>
      <point x="966" y="216"/>
      <point x="950" y="152"/>
      <point x="1022" y="26" type="curve" smooth="yes"/>
      <point x="1026" y="18"/>
      <point x="1030" y="10"/>
      <point x="1034" y="0" type="curve"/>
      <point x="824" y="0" type="line"/>
      <point x="846" y="68"/>
      <point x="870" y="100"/>
      <point x="884" y="126" type="curve" smooth="yes"/>
      <point x="904" y="164"/>
      <point x="920" y="220"/>
      <point x="920" y="220" type="curve"/>
      <point x="888" y="308" type="line"/>
    </contour>
    <contour>
      <point x="1156" y="570" type="curve"/>
      <point x="1176" y="554"/>
      <point x="1192" y="540"/>
      <point x="1208" y="526" type="curve" smooth="yes"/>
      <point x="1300" y="446"/>
      <point x="1434" y="430"/>
      <point x="1580" y="372" type="curve" smooth="yes"/>
      <point x="1726" y="314"/>
      <point x="1766" y="314"/>
      <point x="1766" y="100" type="curve" smooth="yes"/>
      <point x="1766" y="68"/>
      <point x="1766" y="34"/>
      <point x="1766" y="0" type="curve"/>
      <point x="1232" y="0" type="line"/>
      <point x="1230" y="18"/>
      <point x="1230" y="34"/>
      <point x="1228" y="52" type="curve" smooth="yes"/>
      <point x="1214" y="240"/>
      <point x="1178" y="458"/>
    </contour>
  </outline>
</glyph>
